<?xml version="1.0" standalone="no"?>
<!DOCTYPE svg PUBLIC "-//W3C//DTD SVG 20010904//EN"
 "http://www.w3.org/TR/2001/REC-SVG-20010904/DTD/svg10.dtd">
<svg version="1.0" xmlns="http://www.w3.org/2000/svg"
 width="700.000000pt" height="700.000000pt" viewBox="0 0 700.000000 700.000000"
 preserveAspectRatio="xMidYMid meet">
<metadata>
Created by potrace 1.14, written by Peter Selinger 2001-2017
</metadata>
<g transform="translate(0.000000,700.000000) scale(0.100000,-0.100000)"
fill="#000000" stroke="none">
<path d="M3559 6926 c-2 -2 -87 -6 -189 -10 -102 -4 -198 -8 -215 -11 -16 -2
-68 -9 -115 -15 -47 -6 -107 -15 -135 -21 -27 -5 -75 -14 -105 -20 -158 -32
-389 -101 -565 -171 -107 -42 -406 -189 -467 -229 -20 -13 -72 -46 -115 -74
-71 -44 -261 -180 -273 -194 -3 -3 -30 -26 -60 -51 -30 -25 -66 -54 -79 -65
-13 -11 -76 -72 -140 -135 -342 -339 -596 -725 -776 -1178 -48 -122 -135 -399
-149 -474 -2 -13 -11 -57 -20 -99 -19 -92 -43 -251 -51 -339 -3 -36 -8 -87
-10 -115 -6 -61 -6 -391 0 -460 4 -55 18 -197 20 -205 0 -3 5 -32 9 -65 4 -33
16 -102 27 -154 10 -51 21 -103 23 -115 13 -63 61 -229 95 -330 121 -356 322
-724 553 -1012 151 -188 366 -410 518 -533 25 -20 54 -44 64 -53 37 -33 232
-167 336 -231 324 -198 754 -363 1115 -427 39 -7 79 -14 90 -16 11 -2 40 -7
65 -10 25 -3 56 -7 70 -9 123 -21 566 -28 720 -12 343 34 602 93 910 209 162
60 407 178 520 249 14 9 57 35 95 59 82 51 233 157 257 179 9 9 31 27 49 41
145 110 340 302 484 475 28 33 52 62 55 65 11 10 138 187 177 245 204 307 371
690 467 1070 16 64 19 77 42 200 27 147 26 141 38 285 4 47 10 96 12 110 5 32
6 459 0 468 -2 4 -6 45 -10 92 -3 47 -8 96 -11 109 -2 12 -7 44 -10 69 -24
207 -111 530 -210 782 -46 117 -165 357 -230 465 -428 709 -1087 1233 -1870
1489 -165 53 -320 92 -470 116 -33 6 -69 12 -80 14 -57 11 -176 22 -330 31
-60 4 -113 9 -116 11 -3 2 -8 2 -10 0z m166 -330 c843 -56 1651 -474 2183
-1131 31 -38 62 -76 69 -82 22 -24 193 -282 193 -292 0 -5 3 -11 8 -13 17 -7
146 -264 205 -408 67 -165 148 -433 171 -572 3 -18 8 -44 10 -58 12 -60 26
-160 31 -215 3 -33 8 -78 10 -100 6 -53 6 -409 0 -460 -3 -22 -7 -69 -10 -105
-19 -224 -101 -557 -197 -800 -340 -858 -1048 -1525 -1922 -1811 -82 -27 -250
-73 -307 -84 -134 -27 -202 -38 -314 -51 -268 -30 -632 -19 -871 27 -28 5 -64
12 -80 15 -72 12 -241 56 -345 89 -524 169 -1006 483 -1369 895 -41 47 -77 87
-80 90 -23 22 -163 218 -225 315 -183 287 -349 691 -409 995 -23 116 -35 186
-41 240 -3 25 -8 54 -10 66 -9 42 -19 233 -19 369 0 271 25 474 90 740 24 97
76 269 94 310 5 11 28 67 51 125 164 407 463 827 804 1130 204 182 485 368
730 485 252 120 596 227 835 260 25 3 72 10 105 15 33 5 103 12 155 15 52 4
96 7 97 8 4 5 260 -1 358 -7z"/>
<path d="M3238 6002 c-50 -6 -51 -12 -51 -313 0 -247 2 -282 17 -297 14 -14
49 -16 283 -17 260 -1 321 5 325 28 4 33 6 526 1 554 -3 21 -12 35 -27 40 -20
7 -493 11 -548 5z"/>
<path d="M1682 5012 c-30 -4 -132 -106 -155 -154 -39 -82 -7 -196 80 -287 l49
-51 612 0 c576 0 612 -1 613 -17 1 -25 -2 -517 -6 -1208 -2 -324 -6 -621 -9
-660 -15 -179 -20 -216 -41 -301 -13 -50 -35 -115 -50 -144 -70 -139 -204
-220 -403 -247 -97 -12 -412 -7 -607 11 -94 9 -205 -112 -223 -241 -20 -144
56 -260 188 -289 62 -13 846 -4 869 11 6 3 19 8 29 10 35 6 216 77 261 102
165 92 271 201 352 363 43 86 83 227 96 333 4 34 7 644 6 1355 l-1 1293 -22
44 c-38 78 -2 74 -860 77 -415 2 -765 2 -778 0z"/>
<path d="M4158 5010 l-417 -5 -30 -29 c-17 -16 -35 -44 -42 -63 -16 -50 -19
-2603 -2 -2700 56 -327 190 -526 453 -671 30 -16 111 -49 180 -72 97 -33 142
-43 205 -46 179 -7 732 -6 765 1 119 26 192 116 191 236 0 112 -44 203 -126
259 -54 37 -51 37 -240 25 -234 -15 -436 -11 -544 10 -100 19 -202 75 -265
145 -74 82 -129 241 -141 410 -3 47 -8 103 -11 125 -2 22 -7 411 -10 865 -3
454 -6 869 -7 923 l-2 97 615 0 614 0 53 55 c83 88 114 202 77 280 -26 56
-128 155 -161 156 -87 4 -796 3 -1155 -1z"/>
</g>
</svg>
