<?xml version="1.0" encoding="utf-8"?>
<!-- Generator: Adobe Illustrator 26.2.1, SVG Export Plug-In . SVG Version: 6.00 Build 0)  -->
<svg version="1.1" id="Layer_1" xmlns="http://www.w3.org/2000/svg" xmlns:xlink="http://www.w3.org/1999/xlink" x="0px" y="0px"
	 viewBox="0 0 200 200" width="120" height="120" style="enable-background:new 0 0 200 200;" xml:space="preserve">
<g>
	<circle style="fill:#CCCCCC;" cx="100" cy="100" r="98.9"/>
</g>
<g style="enable-background:new    ;">
	<path style="fill:#FFFFFF;" d="M115.7,109.2c4.6,1.6,8.8,3.9,12.6,6.8c3.8,2.9,6.9,6.2,9.5,10.2c2.6,3.9,4.6,8,6,12.6
		c1.4,4.6,2.2,9.2,2.2,14.3h-6.5c0-5.7-1-10.9-3-15.7c-2-4.9-4.8-9.1-8.3-12.6c-3.5-3.5-7.7-6.4-12.5-8.4c-4.8-2-10-3-15.6-3
		c-3.7,0-7.2,0.4-10.6,1.4c-3.4,1-6.5,2.3-9.5,3.9c-3,1.8-5.6,3.8-8,6.1c-2.4,2.4-4.5,5-6.1,8c-1.6,3-3,6.1-3.9,9.5
		c-1,3.4-1.4,6.9-1.4,10.7H54c0-5,0.7-9.8,2.2-14.3c1.5-4.5,3.5-8.7,6.1-12.5c2.6-3.8,5.8-7.2,9.6-10c3.8-2.9,7.9-5.2,12.6-6.9
		c-2.7-1.5-5-3.3-7.2-5.3c-2.2-2-3.9-4.3-5.4-6.9c-1.5-2.6-2.6-5.3-3.4-8.1C67.8,86,67.3,83,67.3,80c0-4.6,0.8-8.8,2.6-12.9
		c1.8-4.1,4.1-7.5,7.1-10.6c3-3,6.5-5.4,10.5-7.1c3.9-1.8,8.3-2.6,12.8-2.6c4.6,0,8.8,0.8,12.8,2.6c3.9,1.8,7.5,4.1,10.5,7.1
		c3,3,5.3,6.5,7.1,10.6c1.8,4.1,2.6,8.3,2.6,12.9c0,3-0.4,6-1.2,8.8c-0.8,2.9-1.9,5.6-3.4,8c-1.5,2.6-3.3,4.9-5.4,6.9
		C120.7,106.1,118.3,107.9,115.7,109.2z M73.6,80.2c0,3.7,0.7,7.1,2,10.3s3.3,6,5.7,8.4c2.4,2.4,5.2,4.3,8.4,5.7
		c3.1,1.4,6.7,2,10.2,2c3.7,0,7.1-0.7,10.2-2c3.1-1.4,6-3.3,8.4-5.7c2.4-2.4,4.2-5.2,5.7-8.4c1.4-3.3,2-6.7,2-10.3
		c0-3.7-0.7-7.1-2-10.3s-3.3-6-5.7-8.4c-2.4-2.4-5.2-4.3-8.4-5.7c-3.1-1.4-6.7-2-10.2-2c-3.7,0-7.1,0.7-10.2,2
		c-3.1,1.4-6,3.3-8.4,5.7c-2.4,2.4-4.2,5.2-5.7,8.4C74.3,73,73.6,76.5,73.6,80.2z"/>
</g>
</svg>
