<?xml version="1.0" encoding="utf-8"?>
<!-- Generator: Adobe Illustrator 26.2.1, SVG Export Plug-In . SVG Version: 6.00 Build 0)  -->
<svg version="1.1" id="s" xmlns="http://www.w3.org/2000/svg" xmlns:xlink="http://www.w3.org/1999/xlink" x="0px" y="0px"
	 viewBox="0 0 400 400" style="enable-background:new 0 0 400 400;" xml:space="preserve">
<style type="text/css">
	.st0{fill:none;}
	.st1{fill:#3E3F95;}
	.st2{fill:#EE4899;}
	.st3{fill:#373435;}
</style>
<path id="Path_52" class="st0" d="M201,22.6L201,22.6c-98.5,0-177.9,80.4-176.9,177.9c0,97.5,78.4,175.9,175.9,176.9h1
	c98.5,0,176.9-80.4,176.9-177.9C375.9,102,297.5,23.6,201,22.6z"/>
<path id="Path_53" class="st1" d="M338.7,61.8C301.5,24.6,252.3,4.5,200,4.5l0,0C92.4,4.5,5,91.9,5,200.5
	C5,251.8,25.1,301,62.3,338.2c36.2,37.2,86.4,57.3,137.7,57.3l0,0c107.6,0,195-87.4,195-196C395,147.2,374.9,98,338.7,61.8z
	 M377.9,200.5c0,97.5-79.4,176.9-176.9,176.9h-1h-1c-98.5-1-176.9-81.4-175.9-179.9C24.1,101,103.5,22.6,200,22.6l0,0
	C298.5,22.6,377.9,102,377.9,200.5L377.9,200.5z"/>
<g>
	<g>
		<path class="st1" d="M235.3,141.8c0,1.4,0,2.4,0,3.2c0.2,29.9,0.3,59.9,0.5,89.8c0,7.1,0.4,14.1,0.9,21.1c0.3,5,1.3,9.9,2.9,14.7
			c3.2,9.9,10.1,15.6,20.3,17.6c6.4,1.3,12.8,1.6,19.3,1.3c6.8-0.2,13.6-0.8,20.3-1.2c2.2-0.2,4.2,0.9,5.8,2.2
			c4.2,3.2,6.4,7.5,6.8,12.6c1,10.8-6.7,15.8-14.5,15.9c-14.1,0.2-28.3-0.2-42.4-0.4c-1.6,0-3.2-0.5-4.7-0.9
			c-4.2-1.4-8.4-2.7-12.4-4.5c-15.4-7-24.4-19.1-27.8-35.5c-1.1-5.3-1.6-10.8-1.6-16.2c0.2-32.7,0.4-65.3,0.5-98
			c0-11-0.3-21.9-0.4-32.9c0-3.2,0-6.5,0.4-9.7c0.7-4.6,3.5-6.9,8.2-7.2c1-0.1,2,0,3.1,0c20.2,0,40.4-0.1,60.5-0.2
			c7.1,0,14.1,0,21.2,0c1.7,0,3.2,0.3,4.4,1.6c1.7,1.8,3.7,3.5,5.2,5.6c2.3,3.2,2.6,6.9,1.2,10.7c-1.4,3.8-3.8,6.8-6.7,9.5
			c-0.5,0.4-1.2,0.6-1.8,0.8c-0.7,0.2-1.5,0-2.3,0c-21,0-42,0-63.1,0L235.3,141.8L235.3,141.8z"/>
		<path class="st2" d="M164.7,141.8c0,1.4,0,2.4,0,3.2c-0.2,29.9-0.3,59.9-0.5,89.8c0,7.1-0.4,14.1-0.9,21.1
			c-0.3,5-1.3,9.9-2.9,14.7c-3.2,9.9-10.1,15.6-20.3,17.6c-6.4,1.3-12.8,1.6-19.3,1.3c-6.8-0.2-13.6-0.8-20.3-1.2
			c-2.2-0.2-4.2,0.9-5.8,2.2c-4.2,3.2-6.4,7.5-6.8,12.6c-1,10.8,6.7,15.8,14.5,15.9c14.1,0.2,28.3-0.2,42.4-0.4
			c1.6,0,3.2-0.5,4.7-0.9c4.2-1.4,8.4-2.7,12.4-4.5c15.4-7,24.4-19.1,27.8-35.5c1.1-5.3,1.6-10.8,1.6-16.2
			c-0.2-32.7-0.4-65.3-0.5-98c0-11,0.3-21.9,0.4-32.9c0-3.2,0-6.5-0.4-9.7c-0.7-4.6-3.5-6.9-8.2-7.2c-1-0.1-2,0-3.1,0
			c-20.2,0-40.4-0.1-60.5-0.2c-7.1,0-14.1,0-21.2,0c-1.7,0-3.2,0.3-4.4,1.6c-1.7,1.8-3.7,3.5-5.2,5.6c-2.3,3.2-2.6,6.9-1.2,10.7
			c1.4,3.8,3.8,6.8,6.7,9.5c0.5,0.4,1.2,0.6,1.8,0.8c0.7,0.2,1.5,0,2.3,0c21,0,42,0,63.1,0L164.7,141.8L164.7,141.8z"/>
	</g>
	<path class="st3" d="M200.2,92.8c-4.8,0-9.5,0-14.3,0c-2.9,0-3.8-0.9-3.8-3.8c0-9.4,0-18.8,0-28.3c0-2.8,0.9-3.8,3.9-3.8
		c9.4,0,18.8,0,28.3,0c3,0,3.8,0.8,3.8,3.8c0,9.4,0,18.8,0,28.3c0,2.9-0.9,3.8-3.8,3.8C209.5,92.8,204.9,92.8,200.2,92.8z"/>
</g>
</svg>
