<svg xmlns="http://www.w3.org/2000/svg" width="116.149" height="115.188" viewBox="0 0 116.149 115.188">
  <g id="Group_4806" data-name="Group 4806" transform="translate(-20.001 -20.001)">
    <circle id="Ellipse_10" data-name="Ellipse 10" cx="2.824" cy="2.824" r="2.824" transform="translate(20.001 20.001)" fill="#bbd7f6"/>
    <circle id="Ellipse_11" data-name="Ellipse 11" cx="2.824" cy="2.824" r="2.824" transform="translate(56.835 20.001)" fill="#bbd7f6"/>
    <circle id="Ellipse_12" data-name="Ellipse 12" cx="2.824" cy="2.824" r="2.824" transform="translate(93.669 20.001)" fill="#bbd7f6"/>
    <circle id="Ellipse_13" data-name="Ellipse 13" cx="2.824" cy="2.824" r="2.824" transform="translate(130.502 20.001)" fill="#bbd7f6"/>
    <circle id="Ellipse_14" data-name="Ellipse 14" cx="2.824" cy="2.824" r="2.824" transform="translate(20.001 56.514)" fill="#bbd7f6"/>
    <circle id="Ellipse_15" data-name="Ellipse 15" cx="2.824" cy="2.824" r="2.824" transform="translate(56.835 56.514)" fill="#bbd7f6"/>
    <circle id="Ellipse_16" data-name="Ellipse 16" cx="2.824" cy="2.824" r="2.824" transform="translate(93.669 56.514)" fill="#bbd7f6"/>
    <circle id="Ellipse_17" data-name="Ellipse 17" cx="2.824" cy="2.824" r="2.824" transform="translate(130.502 56.514)" fill="#bbd7f6"/>
    <path id="Path_131" data-name="Path 131" d="M25.649,95.851a2.824,2.824,0,1,1-2.824-2.824A2.824,2.824,0,0,1,25.649,95.851Z" fill="#bbd7f6"/>
    <path id="Path_132" data-name="Path 132" d="M62.483,95.851a2.824,2.824,0,1,1-2.824-2.824A2.824,2.824,0,0,1,62.483,95.851Z" fill="#bbd7f6"/>
    <path id="Path_133" data-name="Path 133" d="M99.317,95.851a2.824,2.824,0,1,1-2.824-2.824A2.824,2.824,0,0,1,99.317,95.851Z" fill="#bbd7f6"/>
    <path id="Path_134" data-name="Path 134" d="M136.15,95.851a2.824,2.824,0,1,1-2.824-2.824A2.824,2.824,0,0,1,136.15,95.851Z" fill="#bbd7f6"/>
    <path id="Path_135" data-name="Path 135" d="M25.649,132.365a2.824,2.824,0,1,1-2.824-2.825A2.824,2.824,0,0,1,25.649,132.365Z" fill="#bbd7f6"/>
    <path id="Path_136" data-name="Path 136" d="M62.483,132.365a2.824,2.824,0,1,1-2.824-2.825A2.824,2.824,0,0,1,62.483,132.365Z" fill="#bbd7f6"/>
    <path id="Path_137" data-name="Path 137" d="M99.317,132.365a2.824,2.824,0,1,1-2.824-2.825A2.825,2.825,0,0,1,99.317,132.365Z" fill="#bbd7f6"/>
    <path id="Path_138" data-name="Path 138" d="M136.15,132.365a2.824,2.824,0,1,1-2.824-2.825A2.824,2.824,0,0,1,136.15,132.365Z" fill="#bbd7f6"/>
  </g>
</svg>
