<svg xmlns="http://www.w3.org/2000/svg" xmlns:xlink="http://www.w3.org/1999/xlink" width="166.001" height="166.001" viewBox="0 0 166.001 166.001">
  <defs>
    <linearGradient id="linear-gradient" x1="0.5" x2="0.5" y2="1" gradientUnits="objectBoundingBox">
      <stop offset="0" stop-color="#e9f7fd"/>
      <stop offset="1" stop-color="#d2eefa"/>
    </linearGradient>
  </defs>
  <path id="Subtraction_11" data-name="Subtraction 11" d="M276,223a83.612,83.612,0,0,1-16.728-1.686,82.546,82.546,0,0,1-29.679-12.489,83.243,83.243,0,0,1-30.072-36.518,82.579,82.579,0,0,1-4.836-15.58,83.814,83.814,0,0,1,0-33.455,82.548,82.548,0,0,1,12.489-29.679,83.244,83.244,0,0,1,36.518-30.072,82.583,82.583,0,0,1,15.58-4.836,83.808,83.808,0,0,1,33.455,0,82.543,82.543,0,0,1,29.679,12.489,83.242,83.242,0,0,1,30.071,36.518,82.572,82.572,0,0,1,4.836,15.58,83.808,83.808,0,0,1,0,33.455,82.551,82.551,0,0,1-12.489,29.679,83.244,83.244,0,0,1-36.518,30.072,82.587,82.587,0,0,1-15.58,4.836A83.608,83.608,0,0,1,276,223Zm0-126.659a43.522,43.522,0,1,0,16.994,3.431A43.388,43.388,0,0,0,276,96.341Z" transform="translate(-193 -57)" fill="url(#linear-gradient)"/>
</svg>
