<svg xmlns:xlink="http://www.w3.org/1999/xlink" xmlns="http://www.w3.org/2000/svg" width="98" height="81" viewBox="0 0 98 81" fill="none">
<path d="M88.8723 40.2764C88.8723 44.8856 88.0492 49.1656 86.7323 53.2809C85.7446 55.9148 84.5923 58.384 83.2754 60.6886C81.3 63.9809 78.6662 67.1085 75.8678 69.7424C75.3739 70.2362 74.8801 70.5654 74.3862 71.0593C71.7524 73.1993 68.6247 75.1746 65.3324 76.4916C62.3694 77.8085 59.0771 78.7962 55.7848 79.29C53.6448 79.6192 51.6695 79.7838 49.3649 79.7838C32.245 79.7838 17.5943 68.9193 12.162 53.6102C11.6682 52.2933 11.339 51.141 11.0097 49.824C10.5159 47.6841 10.1867 45.3795 10.022 43.0749C9.85742 42.0872 9.85742 41.2641 9.85742 40.2764C9.85742 38.4657 10.022 36.6549 10.1867 34.8441C10.1867 34.3503 10.3513 34.0211 10.3513 33.5272C10.8451 30.8934 11.5036 28.2596 12.4913 25.7904C13.6436 22.6627 15.2897 19.8642 17.2651 17.2304C24.5081 7.35355 36.0311 0.933594 49.3649 0.933594C59.7356 0.933594 69.1186 4.88434 76.197 11.4689C76.5262 11.7981 76.8554 12.1274 77.1847 12.4566C78.9954 14.1027 80.477 16.0781 81.7939 18.0535C83.44 20.5227 84.9215 23.3211 86.0738 26.1196C86.7323 27.7657 87.2261 29.4119 87.5554 31.058C88.3784 34.0211 88.8723 37.1487 88.8723 40.2764Z" fill="#9BCDFB" stroke="#01090F" stroke-width="0.5" stroke-miterlimit="10" stroke-linecap="round" stroke-linejoin="round"/>
<path d="M24.2169 28.2156L24.2252 28.2306L24.2355 28.2442C24.4245 28.4962 24.5121 28.9683 24.4623 29.6759C24.4135 30.3689 24.2376 31.2316 23.9657 32.2095C23.4223 34.1636 22.5066 36.5385 21.5102 38.8602C20.5145 41.18 19.4414 43.4391 18.5864 45.1594C18.159 46.0195 17.7864 46.7441 17.5056 47.2736C17.3652 47.5385 17.2482 47.7537 17.159 47.9123C17.0775 48.0572 17.0254 48.1435 17.001 48.1796C16.5305 48.6469 15.9268 49.0907 15.1904 49.2444C15.0236 49.2479 14.829 49.2838 14.6451 49.3177C14.6217 49.322 14.5986 49.3262 14.5756 49.3304C14.3493 49.3716 14.1222 49.4087 13.9002 49.4087H10.8073C10.3412 47.3376 10.0284 45.1154 9.86957 42.8917L9.86844 42.8759L9.86535 42.8605C9.70658 42.0666 9.70559 41.1059 9.70559 40.1111C9.70559 38.2967 9.70624 36.5085 10.0308 34.7235L10.0643 34.539L9.89662 34.4552C9.46112 34.2374 9.10036 33.942 8.75062 33.6119H9.94943H10.1569L10.1951 33.4079C10.6768 30.8392 11.3142 28.2783 12.2592 25.875H20.3201C22.032 25.875 23.4339 26.8061 24.2169 28.2156Z" fill="#519AF4" stroke="#01090F" stroke-width="0.5"/>
<mask id="path-3-inside-1_741_7377" fill="white">
<path d="M88.7061 31.8833C88.3769 30.4018 88.0476 28.9202 87.3892 27.6033C86.5661 25.1341 85.2492 22.6649 83.9323 20.5249C82.9446 18.7142 81.6277 17.068 80.1461 15.4219H73.0677C72.4093 15.4219 71.7508 15.5865 71.257 15.7511C71.0924 15.9157 70.9277 15.9157 70.5985 16.0803C69.4462 16.7388 67.1416 18.2203 66.1539 20.8541C64.5078 24.9695 60.3924 27.4387 55.9478 27.4387H47.3879C44.2602 27.4387 41.791 30.0725 41.791 33.5294C41.791 33.5294 42.1202 35.6694 42.7787 38.9617C43.4372 41.9248 43.6018 44.8878 43.4372 47.8509C43.2725 52.1309 44.4248 57.2339 47.2233 62.0077C52.1617 70.5677 60.2278 75.3415 66.4832 73.6953C66.977 74.0246 67.8518 75.2386 68.5103 75.4032C68.5103 75.4032 71.9055 74.22 78.2843 67.8412C78.6135 67.512 79.2925 66.8947 79.6218 66.4009C81.9264 64.0963 83.6031 60.8554 85.2492 57.8924C86.4015 55.917 87.3892 53.6124 88.0476 51.4724C89.1999 47.8509 89.8584 44.0648 89.8584 40.114C89.5292 37.151 89.1999 34.5171 88.7061 31.8833Z"/>
</mask>
<path d="M88.7061 31.8833C88.3769 30.4018 88.0476 28.9202 87.3892 27.6033C86.5661 25.1341 85.2492 22.6649 83.9323 20.5249C82.9446 18.7142 81.6277 17.068 80.1461 15.4219H73.0677C72.4093 15.4219 71.7508 15.5865 71.257 15.7511C71.0924 15.9157 70.9277 15.9157 70.5985 16.0803C69.4462 16.7388 67.1416 18.2203 66.1539 20.8541C64.5078 24.9695 60.3924 27.4387 55.9478 27.4387H47.3879C44.2602 27.4387 41.791 30.0725 41.791 33.5294C41.791 33.5294 42.1202 35.6694 42.7787 38.9617C43.4372 41.9248 43.6018 44.8878 43.4372 47.8509C43.2725 52.1309 44.4248 57.2339 47.2233 62.0077C52.1617 70.5677 60.2278 75.3415 66.4832 73.6953C66.977 74.0246 67.8518 75.2386 68.5103 75.4032C68.5103 75.4032 71.9055 74.22 78.2843 67.8412C78.6135 67.512 79.2925 66.8947 79.6218 66.4009C81.9264 64.0963 83.6031 60.8554 85.2492 57.8924C86.4015 55.917 87.3892 53.6124 88.0476 51.4724C89.1999 47.8509 89.8584 44.0648 89.8584 40.114C89.5292 37.151 89.1999 34.5171 88.7061 31.8833Z" fill="#519AF4"/>
<path d="M88.7061 31.8833L89.1975 31.7912L89.196 31.783L89.1942 31.7748L88.7061 31.8833ZM87.3892 27.6033L86.9148 27.7614L86.9261 27.7952L86.942 27.8269L87.3892 27.6033ZM83.9323 20.5249L83.4933 20.7643L83.4996 20.7758L83.5065 20.787L83.9323 20.5249ZM80.1461 15.4219L80.5178 15.0874L80.3688 14.9219H80.1461V15.4219ZM71.257 15.7511L71.0989 15.2768L70.9869 15.3141L70.9034 15.3976L71.257 15.7511ZM70.5985 16.0803L70.3749 15.6331L70.3625 15.6393L70.3504 15.6462L70.5985 16.0803ZM66.1539 20.8541L66.6183 21.0399L66.6221 21.0297L66.1539 20.8541ZM41.791 33.5294H41.291V33.5677L41.2968 33.6055L41.791 33.5294ZM42.7787 38.9617L42.2883 39.0598L42.2906 39.0702L42.7787 38.9617ZM43.4372 47.8509L42.9379 47.8232L42.9375 47.8317L43.4372 47.8509ZM47.2233 62.0077L47.6564 61.7579L47.6546 61.7549L47.2233 62.0077ZM66.4832 73.6953L66.7605 73.2793L66.5734 73.1546L66.3559 73.2118L66.4832 73.6953ZM68.5103 75.4032L68.389 75.8883L68.5339 75.9245L68.6748 75.8754L68.5103 75.4032ZM78.2843 67.8412L77.9307 67.4877L78.2843 67.8412ZM79.6218 66.4009L79.2682 66.0473L79.2332 66.0823L79.2057 66.1235L79.6218 66.4009ZM85.2492 57.8924L84.8172 57.6404L84.8121 57.6495L85.2492 57.8924ZM88.0476 51.4724L87.5712 51.3208L87.5697 51.3254L88.0476 51.4724ZM89.8584 40.114H90.3584V40.0863L90.3553 40.0588L89.8584 40.114ZM89.1942 31.7748C88.8676 30.3051 88.5272 28.7613 87.8364 27.3797L86.942 27.8269C87.5681 29.0792 87.8861 30.4984 88.218 31.9918L89.1942 31.7748ZM87.8635 27.4452C87.0233 24.9245 85.6845 22.4183 84.3581 20.2629L83.5065 20.787C84.8138 22.9115 86.1089 25.3438 86.9148 27.7614L87.8635 27.4452ZM84.3712 20.2855C83.3562 18.4246 82.0094 16.7448 80.5178 15.0874L79.7745 15.7564C81.2459 17.3913 82.533 19.0038 83.4933 20.7643L84.3712 20.2855ZM80.1461 14.9219H73.0677V15.9219H80.1461V14.9219ZM73.0677 14.9219C72.3336 14.9219 71.6177 15.1038 71.0989 15.2768L71.4151 16.2254C71.884 16.0692 72.4849 15.9219 73.0677 15.9219V14.9219ZM70.9034 15.3976C70.8906 15.4104 70.8802 15.4209 70.8038 15.4515C70.7266 15.4823 70.5643 15.5384 70.3749 15.6331L70.8221 16.5275C70.9619 16.4576 71.0465 16.4314 71.1752 16.38C71.3045 16.3282 71.4588 16.2564 71.6105 16.1047L70.9034 15.3976ZM70.3504 15.6462C69.1813 16.3143 66.7389 17.8701 65.6858 20.6786L66.6221 21.0297C67.5443 18.5705 69.7111 17.1633 70.8466 16.5145L70.3504 15.6462ZM65.6897 20.6685C64.1286 24.5711 60.2138 26.9387 55.9478 26.9387V27.9387C60.571 27.9387 64.8869 25.3679 66.6182 21.0398L65.6897 20.6685ZM55.9478 26.9387H47.3879V27.9387H55.9478V26.9387ZM47.3879 26.9387C43.9479 26.9387 41.291 29.8341 41.291 33.5294H42.291C42.291 30.311 44.5726 27.9387 47.3879 27.9387V26.9387ZM41.791 33.5294C41.2968 33.6055 41.2968 33.6055 41.2968 33.6055C41.2968 33.6056 41.2968 33.6056 41.2969 33.6056C41.2969 33.6057 41.2969 33.6059 41.2969 33.606C41.297 33.6063 41.297 33.6067 41.2971 33.6073C41.2973 33.6084 41.2975 33.6101 41.2979 33.6123C41.2985 33.6166 41.2995 33.623 41.3009 33.6314C41.3035 33.6482 41.3074 33.6732 41.3126 33.7061C41.323 33.7718 41.3386 33.869 41.3593 33.9958C41.4007 34.2495 41.4627 34.6216 41.5453 35.0966C41.7106 36.0467 41.9583 37.409 42.2884 39.0598L43.269 38.8637C42.9407 37.2222 42.6945 35.8683 42.5305 34.9253C42.4485 34.4538 42.3871 34.0852 42.3462 33.8347C42.3258 33.7095 42.3105 33.6138 42.3003 33.5496C42.2952 33.5175 42.2914 33.4933 42.2889 33.4772C42.2876 33.4691 42.2867 33.4631 42.2861 33.4591C42.2858 33.4571 42.2855 33.4557 42.2854 33.4547C42.2853 33.4542 42.2853 33.4539 42.2852 33.4537C42.2852 33.4536 42.2852 33.4535 42.2852 33.4535C42.2852 33.4534 42.2852 33.4534 42.2852 33.4534C42.2852 33.4534 42.2852 33.4534 41.791 33.5294ZM42.2906 39.0702C42.9374 41.9809 43.1005 44.8972 42.9379 47.8232L43.9364 47.8786C44.1031 44.8785 43.9369 41.8687 43.2668 38.8533L42.2906 39.0702ZM42.9375 47.8317C42.7691 52.2105 43.9471 57.4075 46.7919 62.2606L47.6546 61.7549C44.9026 57.0603 43.776 52.0512 43.9368 47.8701L42.9375 47.8317ZM46.7902 62.2576C49.2965 66.6018 52.6046 70.0006 56.1014 72.1071C59.5937 74.2109 63.3137 75.0464 66.6104 74.1789L66.3559 73.2118C63.3972 73.9904 59.9566 73.2621 56.6174 71.2505C53.2827 69.2417 50.0885 65.9736 47.6564 61.7579L46.7902 62.2576ZM66.2058 74.1114C66.2826 74.1626 66.3981 74.2666 66.5611 74.4305C66.6388 74.5087 66.7205 74.5934 66.8082 74.6842C66.8948 74.774 66.9866 74.8691 67.0802 74.9633C67.2658 75.1502 67.4701 75.3456 67.6778 75.5076C67.8783 75.6638 68.1226 75.8217 68.389 75.8883L68.6316 74.9181C68.5687 74.9024 68.4568 74.8468 68.2926 74.7188C68.1357 74.5966 67.9669 74.4371 67.7898 74.2587C67.702 74.1703 67.615 74.0802 67.5278 73.9898C67.4415 73.9004 67.3542 73.8099 67.2702 73.7254C67.1097 73.5639 66.9307 73.3927 66.7605 73.2793L66.2058 74.1114ZM68.5103 75.4032C68.6748 75.8754 68.6751 75.8753 68.6754 75.8752C68.6755 75.8751 68.6758 75.875 68.676 75.875C68.6764 75.8748 68.6769 75.8746 68.6775 75.8744C68.6785 75.8741 68.6798 75.8736 68.6813 75.8731C68.6843 75.872 68.6881 75.8706 68.6928 75.8689C68.702 75.8655 68.7146 75.8608 68.7304 75.8547C68.762 75.8424 68.8067 75.8245 68.8644 75.8C68.9798 75.7509 69.1471 75.6752 69.3654 75.5652C69.8021 75.3452 70.4431 74.9878 71.2818 74.4308C72.9592 73.3169 75.4282 71.4045 78.6378 68.1948L77.9307 67.4877C74.7616 70.6568 72.3435 72.5254 70.7286 73.5978C69.9212 74.1339 69.3147 74.471 68.9155 74.6721C68.7159 74.7727 68.5681 74.8393 68.4728 74.8798C68.4252 74.9001 68.3908 74.9138 68.3696 74.9221C68.359 74.9262 68.3517 74.9289 68.3477 74.9303C68.3457 74.9311 68.3446 74.9315 68.3442 74.9316C68.3441 74.9317 68.3441 74.9316 68.3444 74.9315C68.3445 74.9315 68.3447 74.9314 68.3449 74.9314C68.345 74.9313 68.3452 74.9312 68.3453 74.9312C68.3455 74.9311 68.3458 74.9311 68.5103 75.4032ZM78.6378 68.1948C78.7773 68.0553 79.065 67.7829 79.3101 67.5327C79.5654 67.2723 79.8456 66.9665 80.0378 66.6782L79.2057 66.1235C79.0687 66.329 78.8448 66.5789 78.5959 66.8328C78.3369 67.0971 78.1204 67.298 77.9307 67.4877L78.6378 68.1948ZM79.9753 66.7544C82.3418 64.3879 84.0564 61.0689 85.6863 58.1352L84.8121 57.6495C83.1497 60.6419 81.5109 63.8046 79.2682 66.0473L79.9753 66.7544ZM85.6811 58.1443C86.854 56.1336 87.8566 53.7935 88.5255 51.6195L87.5697 51.3254C86.9218 53.4313 85.949 55.7003 84.8173 57.6404L85.6811 58.1443ZM88.5241 51.624C89.6904 47.9585 90.3584 44.1212 90.3584 40.114H89.3584C89.3584 44.0083 88.7095 47.7433 87.5712 51.3208L88.5241 51.624ZM90.3553 40.0588C90.0258 37.093 89.6949 34.444 89.1975 31.7912L88.2147 31.9755C88.7049 34.5902 89.0325 37.2089 89.3615 40.1692L90.3553 40.0588Z" fill="#01090F" mask="url(#path-3-inside-1_741_7377)"/>
<path d="M88.8723 40.2764C88.8723 44.8856 88.0492 49.1656 86.7323 53.2809C85.7446 55.9148 84.5923 58.384 83.2754 60.6886C81.3 63.9809 78.6662 67.1085 75.8678 69.7424C75.3739 70.2362 74.8801 70.5654 74.3862 71.0593C71.7524 73.1993 68.6247 75.1746 65.3324 76.4916C62.3694 77.8085 59.0771 78.7962 55.7848 79.29C53.6448 79.6192 51.6695 79.7838 49.3649 79.7838C32.245 79.7838 17.5943 68.9193 12.162 53.6102C11.6682 52.2933 11.339 51.141 11.0097 49.824C10.5159 47.6841 10.1867 45.3795 10.022 43.0749C9.85742 42.0872 9.85742 41.2641 9.85742 40.2764C9.85742 38.4657 10.022 36.6549 10.1867 34.8441C10.1867 34.3503 10.3513 34.0211 10.3513 33.5272C10.8451 30.8934 11.5036 28.2596 12.4913 25.7904C13.6436 22.6627 15.2897 19.8642 17.2651 17.2304C24.5081 7.35355 36.0311 0.933594 49.3649 0.933594C59.7356 0.933594 69.1186 4.88434 76.197 11.4689C76.5262 11.7981 76.8554 12.1274 77.1847 12.4566C78.9954 14.1027 80.4769 16.0781 81.7939 18.0535C83.44 20.5227 84.9215 23.3211 86.0738 26.1196C86.7323 27.7657 87.2261 29.4119 87.5554 31.058C88.3784 34.0211 88.8723 37.1487 88.8723 40.2764Z" stroke="#01090F" stroke-width="0.5" stroke-miterlimit="10" stroke-linecap="round" stroke-linejoin="round"/>
<path d="M0.720707 20.0971C-0.893858 28.4183 5.31601 35.746 13.3888 35.9944H25.1876C26.057 35.9944 26.8022 35.2492 26.8022 34.3798V22.8294C26.8022 14.6324 19.4745 8.29834 11.0291 9.9129C5.937 10.9065 1.71429 15.005 0.720707 20.0971Z" fill="#01090F"/>
<path d="M13.6368 35.469C20.617 35.469 26.2756 29.8104 26.2756 22.8302C26.2756 15.85 20.617 10.1914 13.6368 10.1914C6.65662 10.1914 0.998047 15.85 0.998047 22.8302C0.998047 29.8104 6.65662 35.469 13.6368 35.469Z" fill="#FFC664"/>
<path fill-rule="evenodd" clip-rule="evenodd" d="M21.226 17.3802C22.0061 18.0511 22.0946 19.2273 21.4238 20.0074L12.879 29.9432C12.227 30.7013 11.0929 30.8095 10.3093 30.1884L6.09838 26.8506C5.29208 26.2115 5.15655 25.0397 5.79567 24.2334C6.43479 23.4271 7.60654 23.2916 8.41285 23.9307L11.2211 26.1567L18.5988 17.578C19.2697 16.7979 20.4459 16.7093 21.226 17.3802Z" fill="#9BCDFB" stroke="#01090F" stroke-width="0.5" stroke-miterlimit="10" stroke-linecap="round" stroke-linejoin="round"/>
<path d="M85.7895 23.1171C76.4267 21.3004 68.1818 28.2876 67.9023 37.371V50.6466C67.9023 51.6248 68.7408 52.4633 69.719 52.4633H82.7152C91.9383 52.4633 99.0652 44.2184 97.2485 34.7158C96.1306 28.8466 91.519 24.2351 85.7895 23.1171Z" fill="#01090F"/>
<path d="M82.7148 51.4823C90.4321 51.4823 96.6883 45.2261 96.6883 37.5087C96.6883 29.7913 90.4321 23.5352 82.7148 23.5352C74.9974 23.5352 68.7412 29.7913 68.7412 37.5087C68.7412 45.2261 74.9974 51.4823 82.7148 51.4823Z" fill="#FFC664"/>
<path fill-rule="evenodd" clip-rule="evenodd" d="M91.2578 31.2374C92.1355 31.9922 92.2351 33.3157 91.4803 34.1934L81.8659 45.3729C81.1323 46.2259 79.8562 46.3477 78.9745 45.6489L74.2365 41.8932C73.3293 41.1741 73.1768 39.8557 73.8959 38.9485C74.6151 38.0412 75.9335 37.8887 76.8407 38.6079L80.0005 41.1125L88.3017 31.4599C89.0566 30.5822 90.38 30.4825 91.2578 31.2374Z" fill="#9BCDFB" stroke="#01090F" stroke-width="0.5" stroke-miterlimit="10" stroke-linecap="round" stroke-linejoin="round"/>
</svg>