<svg xmlns="http://www.w3.org/2000/svg" width="100" height="100" viewBox="495.28 741.891 100 100"><path fill="#2C2F33" d="M573.09 779.942h1.613a4.78 4.78 0 0 1 4.778 4.779v7.508c0 .478-.238.915-.637 1.175a1.924 1.924 0 0 0-.877 1.632v7.229c0 .896.498 1.674 1.295 2.071.937.458 5.795 2.907 10.296 6.611.379.318.597.776.597 1.294v5.138c0 1.097.877 1.972 1.972 1.972a1.963 1.963 0 0 0 1.972-1.972v-5.138a5.567 5.567 0 0 0-2.051-4.341c-3.963-3.266-8.205-5.615-10.156-6.631v-5.317a5.366 5.366 0 0 0 1.514-3.724v-7.508c0-4.819-3.924-8.723-8.723-8.723h-1.613c-4.819 0-8.722 3.923-8.722 8.723v7.508a5.36 5.36 0 0 0 1.513 3.724v2.569c0 1.095.877 1.972 1.972 1.972s1.972-.877 1.972-1.972v-3.466c0-.657-.339-1.274-.877-1.632a1.4 1.4 0 0 1-.637-1.176v-7.508a4.8 4.8 0 0 1 4.799-4.797zM498.511 807.922a5.627 5.627 0 0 0-2.051 4.341v5.138c0 1.096.876 1.972 1.972 1.972s1.972-.876 1.972-1.972v-5.138c0-.498.219-.976.597-1.294 4.501-3.685 9.359-6.154 10.296-6.612a2.293 2.293 0 0 0 1.294-2.07v-7.229c0-.657-.338-1.274-.876-1.632a1.398 1.398 0 0 1-.637-1.176v-7.508a4.78 4.78 0 0 1 4.778-4.779h1.614a4.78 4.78 0 0 1 4.779 4.779v7.508c0 .479-.238.916-.638 1.176a1.926 1.926 0 0 0-.876 1.632v3.625c0 1.095.876 1.972 1.972 1.972a1.965 1.965 0 0 0 1.972-1.972v-2.708a5.367 5.367 0 0 0 1.514-3.725v-7.508c0-4.819-3.925-8.723-8.723-8.723h-1.614c-4.818 0-8.722 3.924-8.722 8.723v7.508c0 1.414.558 2.729 1.514 3.725v5.316c-1.932 1.015-6.174 3.385-10.137 6.631z"/><path fill="#3C92CA" d="M568.988 819.372a1.964 1.964 0 0 0 1.972-1.972v-6.651a6.626 6.626 0 0 0-2.43-5.158c-5.317-4.381-11.013-7.486-13.343-8.682v-7.488a6.352 6.352 0 0 0 1.951-4.579v-9.719c0-5.915-4.818-10.714-10.714-10.714h-2.091c-5.914 0-10.714 4.819-10.714 10.714v9.719a6.36 6.36 0 0 0 1.951 4.579v7.488c-2.329 1.195-8.024 4.301-13.342 8.682a6.623 6.623 0 0 0-2.43 5.158v6.651c0 1.096.876 1.972 1.972 1.972s1.972-.876 1.972-1.972v-6.651c0-.816.359-1.593.996-2.111 5.874-4.818 12.227-8.024 13.442-8.622a2.374 2.374 0 0 0 1.354-2.15v-9.36c0-.657-.339-1.274-.877-1.633a2.407 2.407 0 0 1-1.075-2.012v-9.718c0-3.743 3.047-6.771 6.771-6.771h2.091c3.744 0 6.771 3.046 6.771 6.771v9.718a2.43 2.43 0 0 1-1.076 2.012 1.93 1.93 0 0 0-.876 1.633v9.36c0 .915.518 1.752 1.354 2.171 1.216.597 7.567 3.803 13.442 8.622.637.518.996 1.294.996 2.11v6.651c-.039 1.076.837 1.952 1.933 1.952z"/></svg>