<svg version="1.1" id="Layer_1" xmlns="http://www.w3.org/2000/svg" x="0" y="0" viewBox="0 0 100 100" xml:space="preserve"><style>.st0{fill:#2c2f33}.st1{fill:#3c92ca}</style><path class="st0" d="M71.2 92.5H25.5c-.9 0-1.6.7-1.6 1.6v3.3c0 .9.7 1.6 1.6 1.6.9 0 1.6-.7 1.6-1.6v-1.6h44.1c.9 0 1.6-.7 1.6-1.6.1-1-.7-1.7-1.6-1.7z"/><path class="st1" d="M36.9 41.8c0 .9.7 1.6 1.6 1.6H45c.9 0 1.6-.7 1.6-1.6V32c0-.9-.7-1.6-1.6-1.6h-6.5c-.9 0-1.6.7-1.6 1.6v9.8zm3.3-8.1h3.3v6.5h-3.3v-6.5z"/><path class="st0" d="M22.2 20.6H2.6c-.9 0-1.6.7-1.6 1.6v32.7c0 .9.7 1.6 1.6 1.6s1.6-.7 1.6-1.6v-31h18c.9 0 1.6-.7 1.6-1.6.1-1-.7-1.7-1.6-1.7z"/><path class="st1" d="M79.4 81c0 .9.7 1.6 1.6 1.6h6.5c.9 0 1.6-.7 1.6-1.6v-9.8c0-.9-.7-1.6-1.6-1.6H81c-.9 0-1.6.7-1.6 1.6V81zm3.3-8.1H86v6.5h-3.3v-6.5z"/><path class="st0" d="M9.2 59.8C1.1 59.8 1 80.8 1 81c0 3.9 2.8 7.2 6.5 8v8.3c0 .9.7 1.6 1.6 1.6s1.6-.7 1.6-1.6V89c3.7-.8 6.5-4.1 6.5-8 .1-.2 0-21.2-8-21.2zm0 26.1c-2.7 0-4.9-2.2-4.9-4.9 0-8.1 2.2-18 4.9-18s4.9 9.8 4.9 18c0 2.7-2.2 4.9-4.9 4.9z"/><path class="st1" d="M19 50h-6.5c-.9 0-1.6.7-1.6 1.6v3.3c0 .9.7 1.6 1.6 1.6.9 0 1.6-.7 1.6-1.6v-1.6h3.3v8.2c0 .9.7 1.6 1.6 1.6.9 0 1.6-.7 1.6-1.6v-9.8c0-1-.7-1.7-1.6-1.7zM81 43.5h6.5c.9 0 1.6-.7 1.6-1.6V32c0-.9-.7-1.6-1.6-1.6H81c-.9 0-1.6.7-1.6 1.6v9.8c0 .9.7 1.7 1.6 1.7zm1.7-9.8H86v6.5h-3.3v-6.5zM19 30.4h-6.5c-.9 0-1.6.7-1.6 1.6v9.8c0 .9.7 1.6 1.6 1.6H19c.9 0 1.6-.7 1.6-1.6V32c0-.9-.7-1.6-1.6-1.6zm-1.7 9.8H14v-6.5h3.3v6.5zM53.3 41.8c0 .9.7 1.6 1.6 1.6h6.5c.9 0 1.6-.7 1.6-1.6V32c0-.9-.7-1.6-1.6-1.6h-6.5c-.9 0-1.6.7-1.6 1.6v9.8zm3.2-8.1h3.3v6.5h-3.3v-6.5z"/><path class="st0" d="M97.4 20.6H77.8c-.9 0-1.6.7-1.6 1.6s.7 1.6 1.6 1.6h18v65.6c-.5-.2-1.1-.3-1.6-.3-.3 0-.6 0-.8.1-1.1-2-3.3-3.3-5.7-3.3-2.4 0-4.6 1.3-5.7 3.3-.3 0-.6-.1-.8-.1-2.7 0-4.9 2.2-4.9 4.9s2 5 4.7 5h13.1c2.7 0 4.9-2.2 4.9-4.9V22.2c0-.9-.7-1.6-1.6-1.6zm-3.3 75.1H81c-.9 0-1.6-.7-1.6-1.6 0-.9.7-1.6 1.6-1.6.3 0 .6.1.9.3.4.3 1 .3 1.5.1s.9-.6 1-1.1c.3-1.5 1.6-2.5 3.2-2.5 1.5 0 2.8 1 3.2 2.5.1.5.5.9 1 1.1.5.2 1.1.1 1.5-.1 1.1-.7 2.5.2 2.5 1.4-.1.8-.8 1.5-1.7 1.5z"/><path class="st1" d="M54.9 23.9h6.5c.9 0 1.6-.7 1.6-1.6v-9.8c0-.9-.7-1.6-1.6-1.6h-6.5c-.9 0-1.6.7-1.6 1.6v9.8c0 .8.7 1.6 1.6 1.6zm1.6-9.8h3.3v6.5h-3.3v-6.5zM53.3 61.4c0 .9.7 1.6 1.6 1.6h6.5c.9 0 1.6-.7 1.6-1.6v-9.8c0-.9-.7-1.6-1.6-1.6h-6.5c-.9 0-1.6.7-1.6 1.6v9.8zm3.2-8.1h3.3v6.5h-3.3v-6.5zM38.6 23.9h6.5c.9 0 1.6-.7 1.6-1.6v-9.8c0-.9-.7-1.6-1.6-1.6h-6.5c-.9 0-1.6.7-1.6 1.6v9.8c-.1.8.7 1.6 1.6 1.6zm1.6-9.8h3.3v6.5h-3.3v-6.5zM48.8 79.9c-.3.3-.5.7-.5 1.2s.2.8.5 1.2c.3.3.7.5 1.2.5.4 0 .8-.2 1.2-.5.3-.3.5-.7.5-1.2s-.2-.8-.5-1.2c-.7-.6-1.7-.6-2.4 0zM36.9 61.4c0 .9.7 1.6 1.6 1.6H45c.9 0 1.6-.7 1.6-1.6v-9.8c0-.9-.7-1.6-1.6-1.6h-6.5c-.9 0-1.6.7-1.6 1.6v9.8zm3.3-8.1h3.3v6.5h-3.3v-6.5z"/><path class="st0" d="M33.7 71.2c0 .9.7 1.6 1.6 1.6h4.9v14.7c0 .9.7 1.6 1.6 1.6.9 0 1.6-.7 1.6-1.6V72.9h13.1v14.7c0 .9.7 1.6 1.6 1.6s1.6-.7 1.6-1.6V72.9h4.9c.9 0 1.6-.7 1.6-1.6 0-.9-.7-1.6-1.6-1.6H35.3c-.9-.1-1.6.6-1.6 1.5z"/><path class="st1" d="M79.4 61.4c0 .9.7 1.6 1.6 1.6h6.5c.9 0 1.6-.7 1.6-1.6v-9.8c0-.9-.7-1.6-1.6-1.6H81c-.9 0-1.6.7-1.6 1.6v9.8zm3.3-8.1H86v6.5h-3.3v-6.5z"/><path class="st0" d="M71.2 1H28.8c-.9 0-1.6.7-1.6 1.6v84.9c0 .9.7 1.6 1.6 1.6.9 0 1.6-.7 1.6-1.6V4.3h39.2v83.3c0 .9.7 1.6 1.6 1.6.9 0 1.6-.7 1.6-1.6v-85c.1-.9-.7-1.6-1.6-1.6z"/></svg>