<?xml version="1.0" encoding="UTF-8"?><svg id="a" xmlns="http://www.w3.org/2000/svg" viewBox="0 0 168.67 36.2"><g><g><path d="M19.74,11.6c0,.18,0,.3,0,.41,.02,3.81,.04,7.63,.07,11.44,0,.9,.05,1.8,.11,2.69,.04,.64,.17,1.26,.37,1.87,.41,1.26,1.28,1.99,2.58,2.24,.81,.16,1.63,.2,2.46,.16,.87-.03,1.73-.1,2.59-.15,.28-.02,.53,.11,.74,.28,.53,.41,.81,.96,.87,1.61,.13,1.38-.85,2.01-1.85,2.02-1.8,.02-3.6-.02-5.4-.05-.2,0-.41-.06-.6-.12-.53-.18-1.07-.34-1.58-.57-1.96-.89-3.11-2.43-3.54-4.52-.14-.68-.21-1.37-.2-2.06,.02-4.16,.05-8.32,.06-12.48,0-1.4-.04-2.79-.05-4.19,0-.41,0-.83,.05-1.23,.09-.59,.44-.88,1.04-.92,.13-.01,.26,0,.39,0,2.57,0,5.14-.01,7.7-.02,.9,0,1.8,0,2.7,0,.22,0,.41,.04,.56,.2,.22,.23,.47,.45,.66,.71,.29,.41,.33,.88,.15,1.36-.18,.48-.49,.87-.85,1.21-.06,.05-.15,.08-.23,.1-.09,.02-.19,0-.29,0-2.68,0-5.35,0-8.03,0h-.48Z" fill="#3e3f95"/><path d="M10.75,11.6c0,.18,0,.3,0,.41-.02,3.81-.04,7.63-.07,11.44,0,.9-.05,1.8-.11,2.69-.04,.64-.17,1.26-.37,1.87-.41,1.26-1.28,1.99-2.58,2.24-.81,.16-1.63,.2-2.46,.16-.87-.03-1.73-.1-2.59-.15-.28-.02-.53,.11-.74,.28-.53,.41-.81,.96-.87,1.61-.13,1.38,.85,2.01,1.85,2.02,1.8,.02,3.6-.02,5.4-.05,.2,0,.41-.06,.6-.12,.53-.18,1.07-.34,1.58-.57,1.96-.89,3.11-2.43,3.54-4.52,.14-.68,.21-1.37,.2-2.06-.02-4.16-.05-8.32-.06-12.48,0-1.4,.04-2.79,.05-4.19,0-.41,0-.83-.05-1.23-.09-.59-.44-.88-1.04-.92-.13-.01-.26,0-.39,0-2.57,0-5.14-.01-7.7-.02-.9,0-1.8,0-2.7,0-.22,0-.41,.04-.56,.2-.22,.23-.47,.45-.66,.71-.29,.41-.33,.88-.15,1.36,.18,.48,.49,.87,.85,1.21,.06,.05,.15,.08,.23,.1,.09,.02,.19,0,.29,0,2.68,0,5.35,0,8.03,0h.48Z" fill="#ee4899"/></g><path d="M15.27,5.36c-.61,0-1.21,0-1.82,0-.37,0-.49-.12-.49-.48,0-1.2,0-2.4,0-3.6,0-.36,.12-.48,.5-.48,1.2,0,2.4,0,3.6,0,.38,0,.49,.1,.49,.48,0,1.2,0,2.4,0,3.6,0,.37-.11,.48-.49,.48-.6,0-1.19,0-1.79,0Z" fill="#373435"/></g><g><path d="M44.37,17.64c0,.83,0,1.62,0,2.41,0,.19,.08,.32,.26,.4,.08,.03,.18,.06,.22,.12,.06,.11,.11,.26,.1,.38,0,.07-.14,.15-.24,.19-.09,.04-.19,.03-.29,.03-.71,0-1.41,0-2.12,0-.08,0-.17,0-.25-.02-.15-.02-.29-.09-.29-.25,0-.13,.06-.32,.15-.36,.44-.19,.46-.55,.46-.95,0-1.75,0-3.5,0-5.25,0-.36-.02-.67-.42-.83-.18-.07-.23-.24-.19-.43,.05-.2,.21-.25,.39-.25,.66,0,1.33,0,1.99,0,.88,0,1.75-.01,2.63,0,.38,0,.76,.06,1.13,.15,1.45,.38,1.93,2.05,.91,3.16-.19,.2-.44,.35-.66,.52-.1,.07-.21,.12-.33,.19,.03,.07,.04,.13,.06,.17,.54,.93,.95,1.92,1.33,2.92,.08,.22,.18,.41,.41,.51,.07,.03,.14,.1,.18,.17,.15,.22,.05,.45-.22,.5-.11,.02-.22,.03-.34,.03-.66,0-1.33,0-1.99,0-.03,0-.06,0-.08,0-.19-.02-.42,.01-.49-.23-.07-.23,.07-.37,.26-.48,.14-.08,.18-.22,.15-.36-.03-.17-.05-.34-.13-.49-.32-.64-.65-1.28-.98-1.92-.06-.11-.13-.22-.29-.2-.42,.05-.83,.1-1.32,.16Zm.04-1.01c.74-.04,1.42-.1,2.05-.41,.11-.06,.22-.12,.32-.2,.49-.4,.61-.93,.46-1.53-.13-.55-.57-.75-1.07-.81-.39-.05-.79-.04-1.18-.02-.47,.03-.62,.19-.62,.67,0,.68,0,1.35,0,2.03,0,.07,.02,.14,.03,.26Z"/><path d="M154.65,17.49l-1.42,.15c-.01,.12-.03,.21-.04,.31,0,.66,0,1.33,0,1.99,0,.27,.05,.47,.34,.56,.15,.05,.27,.15,.27,.34,0,.16-.05,.28-.22,.31-.13,.02-.25,.03-.38,.04-.68,0-1.36,0-2.03,0-.1,0-.21,.01-.29-.03-.11-.05-.23-.12-.27-.21-.07-.15-.03-.33,.13-.4,.44-.18,.46-.54,.46-.94,0-1.74,0-3.47,0-5.21,0-.38-.03-.7-.44-.87-.18-.08-.21-.26-.17-.43,.04-.18,.19-.23,.36-.23,.07,0,.14,0,.21,0,1.43,0,2.85-.01,4.28,0,.42,0,.85,.06,1.26,.15,.69,.15,1.23,.52,1.39,1.26,.16,.76,.04,1.47-.56,2.02-.26,.23-.57,.41-.88,.63,0,.02,.01,.08,.04,.13,.52,.89,.93,1.84,1.29,2.81,.1,.28,.21,.54,.51,.69,.1,.05,.17,.22,.19,.35,.02,.13-.06,.25-.21,.27-.13,.02-.25,.04-.38,.04-.68,0-1.36,0-2.03,0-.01,0-.03,0-.04,0-.19-.02-.42,.02-.5-.23-.07-.23,.06-.37,.24-.48,.17-.1,.21-.27,.15-.44-.1-.31-.19-.62-.32-.92-.25-.57-.55-1.11-.91-1.62Zm-1.42-.86c.8-.03,1.56-.1,2.25-.51,.04-.02,.07-.05,.1-.07,.51-.4,.62-.93,.49-1.52-.13-.57-.58-.78-1.1-.84-.39-.04-.79-.04-1.18-.01-.45,.03-.59,.19-.6,.65,0,.68,0,1.35,0,2.03,0,.08,.02,.16,.03,.28Z"/><path d="M101.28,21.17c-.62,0-1.24,0-1.86,0-.15,0-.31-.02-.46-.04-.17-.03-.31-.13-.31-.3,0-.12,.08-.31,.17-.35,.42-.17,.42-.5,.42-.87,0-1.68-.01-3.36,0-5.04,0-.4-.06-.72-.46-.91-.1-.05-.23-.23-.21-.32,.03-.12,.17-.27,.29-.32,.24-.08,.49-.12,.74-.14,1.48-.1,2.97-.14,4.42,.21,1.57,.37,2.63,1.31,3,2.93,.2,.87,.14,1.74-.18,2.58-.52,1.37-1.52,2.2-2.96,2.42-.86,.13-1.74,.13-2.61,.19v-.05Zm.07-4.15h0c0,.89,0,1.78,0,2.67,0,.59,.15,.71,.74,.7,1.09-.03,1.9-.55,2.38-1.5,.65-1.26,.62-2.57-.04-3.82-.51-.96-1.38-1.37-2.46-1.36-.47,0-.6,.14-.63,.6,0,.13,0,.25,0,.38,0,.78,0,1.55,0,2.33Z"/><path d="M91.25,15.03c0,.12-.02,.24-.02,.36,0,1.41,0,2.82,0,4.24,0,.08,0,.17,0,.25,0,.29,.13,.47,.4,.58,.35,.13,.44,.26,.41,.45-.04,.2-.14,.26-.55,.26-.56,0-1.13,0-1.7,0-.07,0-.14,0-.21-.01-.17-.01-.3-.08-.33-.26-.03-.2,.07-.32,.24-.4,.05-.02,.11-.04,.16-.05,.28-.08,.41-.28,.43-.56,.01-.2,.03-.39,.03-.59,0-1.61,0-3.22,0-4.83,0-.1,0-.2,0-.3,0-.28-.12-.49-.41-.57-.09-.03-.21-.06-.26-.14-.07-.11-.13-.25-.13-.37,0-.15,.14-.24,.3-.24,.68,0,1.36-.01,2.03,.01,.31,.01,.54,.24,.73,.47,.25,.29,.49,.58,.72,.89,.88,1.21,1.75,2.43,2.63,3.64,.09,.12,.18,.24,.32,.44,.02-.18,.04-.27,.04-.36,0-1.17,0-2.34,0-3.52,0-.39-.09-.68-.48-.84-.25-.1-.32-.29-.26-.47,.07-.21,.24-.27,.43-.27,.58,0,1.16,0,1.74,0,.19,0,.33,.08,.38,.27,.06,.21-.02,.38-.21,.45-.41,.15-.47,.47-.47,.85,0,1.93,0,3.87,0,5.8,0,.22-.03,.45-.06,.67-.02,.21-.16,.32-.36,.36-.51,.1-.95,.02-1.29-.46-1.29-1.82-2.61-3.62-3.92-5.43-.09-.12-.18-.23-.27-.35l-.07,.03Z"/><path d="M136.26,21.4c-.89,.01-1.75-.23-2.51-.77-1.64-1.16-2.17-2.83-1.76-4.72,.37-1.7,1.82-2.99,3.63-3.22,1.44-.19,2.78,.09,3.88,1.14,1,.96,1.34,2.15,1.29,3.49-.1,2.65-2.48,4.15-4.53,4.07Zm-2.28-4.33c.02,.26,.03,.62,.07,.97,.08,.58,.23,1.13,.56,1.62,.29,.44,.68,.77,1.2,.86,1.11,.2,2-.16,2.47-1.27,.08-.18,.13-.37,.18-.56,.23-.89,.22-1.79,.14-2.69-.05-.52-.2-1.02-.46-1.48-.47-.82-1.31-1.27-2.47-.96-.72,.19-1.11,.73-1.37,1.39-.26,.65-.3,1.34-.33,2.12Z"/><path d="M162.61,21.44c-.67-.02-1.33-.12-1.94-.4-.54-.25-1-.6-1.28-1.13-.09-.17-.15-.37-.16-.56-.02-.26,.18-.5,.42-.57,.24-.08,.47-.01,.65,.19,.07,.09,.13,.18,.18,.28,.44,.91,1.23,1.25,2.18,1.25,.34,0,.7-.1,1.03-.21,.32-.1,.54-.35,.66-.67,.21-.58,0-1.11-.58-1.29-.62-.19-1.26-.28-1.89-.44-.4-.1-.8-.2-1.17-.36-.61-.26-1-.74-1.14-1.38-.28-1.27,.13-2.19,.97-2.82,.49-.37,1.04-.58,1.63-.65,.88-.1,1.75-.05,2.58,.28,.73,.29,.97,.74,.81,1.5-.07,.33-.36,.46-.64,.25-.12-.09-.22-.22-.3-.35-.55-.97-1.71-1.08-2.48-.79-.49,.18-.79,.54-.81,1.08-.02,.47,.14,.77,.59,.92,.51,.17,1.04,.27,1.56,.39,.37,.09,.75,.15,1.11,.26,1.12,.35,1.78,1.28,1.62,2.59-.16,1.29-1.03,2.19-2.38,2.47-.4,.08-.81,.1-1.22,.15Z"/><path d="M148.31,16.74c-.08-.83-.17-1.66-.25-2.48-.03-.29-.17-.5-.43-.64-.06-.03-.12-.07-.18-.12-.13-.1-.21-.24-.15-.41,.05-.17,.19-.25,.36-.25,.59,0,1.19,0,1.78,0,.17,0,.3,.09,.35,.26,.04,.17,0,.33-.15,.41-.41,.22-.41,.57-.38,.98,.09,1.17,.17,2.34,.2,3.51,.01,.44-.07,.9-.19,1.33-.28,.97-.95,1.59-1.92,1.86-1.1,.31-2.21,.31-3.3,0-1.24-.35-1.97-1.31-2.01-2.68-.03-1,.07-2,.11-3,.02-.39,.06-.79,.08-1.18,.01-.28-.06-.53-.35-.67-.19-.09-.3-.26-.25-.49,.05-.2,.21-.33,.48-.33,.79,0,1.58,0,2.37,0,.29,0,.44,.13,.48,.33,.05,.24-.05,.42-.27,.52-.22,.11-.36,.27-.4,.51-.25,1.55-.38,3.11-.11,4.68,.02,.14,.06,.28,.11,.41,.25,.71,.73,1.14,1.49,1.19,.33,.02,.68,.02,1.01-.05,.61-.12,1.02-.51,1.24-1.1,.18-.47,.23-.96,.24-1.45,0-.38,0-.76,0-1.14h.02Z"/><path d="M69.12,16.15c.79,0,1.51,0,2.22,0,.14,0,.29-.1,.42-.17,.43-.24,.69-.1,.71,.38,.01,.25,.02,.51,0,.76-.04,.35-.26,.5-.55,.32-.46-.29-.96-.3-1.47-.29-.42,0-.84,0-1.28,0-.02,.13-.04,.23-.04,.32,0,.75,0,1.5,0,2.25,0,.5,.09,.58,.6,.59,.54,0,1.07,0,1.61,0,.58,0,1.08-.17,1.45-.66,.05-.07,.12-.13,.18-.17,.31-.21,.61-.07,.62,.29,0,.29-.02,.59-.07,.88-.06,.36-.19,.47-.57,.51-.11,.01-.23,.02-.34,.02-1.84,0-3.67,0-5.51,0-.1,0-.21,.02-.29-.02-.11-.04-.24-.12-.27-.21-.03-.1,.03-.3,.1-.33,.48-.22,.43-.63,.43-1.05,0-1.78,0-3.56,0-5.34,0-.3-.02-.56-.3-.74-.13-.09-.2-.24-.14-.41,.07-.2,.23-.23,.41-.23,.55,0,1.1,0,1.65,0,1.16,0,2.32,0,3.47,0,.8,0,.96,.16,1,.96,0,.14,.01,.28,0,.42-.03,.29-.22,.39-.48,.25-.11-.06-.21-.14-.3-.24-.34-.39-.79-.54-1.28-.56-.47-.02-.93-.02-1.4-.01-.39,0-.5,.11-.56,.49-.02,.14-.02,.28-.02,.42,0,.51,0,1.01,0,1.57Z"/><path d="M55.31,18.51h-3.05c-.13,.49-.27,.97-.4,1.46-.05,.19,.01,.33,.16,.44,.07,.05,.13,.1,.2,.16,.13,.12,.18,.28,.09,.42-.05,.09-.2,.16-.31,.17-.52,.02-1.04,.02-1.57,0-.12,0-.27-.1-.34-.2-.1-.15,0-.31,.14-.4,.32-.19,.42-.51,.54-.83,.55-1.51,1.09-3.03,1.66-4.53,.23-.59,.53-1.15,.81-1.72,.1-.2,.25-.37,.39-.55,.31-.39,1.17-.41,1.47,.12,.15,.27,.31,.54,.45,.82,.89,1.84,1.61,3.76,2.21,5.71,.11,.36,.18,.74,.54,.97,.09,.06,.13,.25,.12,.37-.01,.16-.17,.21-.32,.23-.06,0-.11,.02-.17,.02-.71,0-1.41,0-2.12,0-.17,0-.35,0-.43-.2-.09-.2,0-.36,.15-.48,.17-.14,.26-.3,.2-.52-.14-.49-.28-.97-.42-1.46Zm-1.48-3.85c-.36,.48-1.11,2.38-1.12,2.79,.59,.08,1.87,.05,2.19-.05-.3-.92-.64-1.82-1.07-2.74Z"/><path d="M117.2,18.51h-3.01c-.19,.49-.37,.99-.43,1.52-.01,.12,.07,.26,.14,.37,.06,.09,.18,.14,.25,.23,.2,.24,.09,.53-.23,.54-.54,.02-1.07,.01-1.61,0-.12,0-.29-.11-.32-.2-.04-.1,.03-.3,.11-.36,.36-.24,.47-.62,.6-.99,.5-1.38,.98-2.76,1.51-4.13,.26-.68,.6-1.33,.92-1.99,.08-.18,.21-.33,.33-.49,.35-.47,1.24-.47,1.55,.1,.13,.25,.28,.49,.4,.74,.93,1.91,1.66,3.89,2.28,5.91,.09,.3,.18,.59,.47,.77,.14,.09,.19,.24,.14,.41-.05,.18-.21,.22-.37,.22-.78,0-1.55,0-2.33,0-.14,0-.29-.04-.34-.2-.05-.16-.03-.33,.11-.42,.32-.23,.28-.52,.18-.83-.12-.39-.24-.78-.37-1.2Zm-1.51-3.81c-.47,.89-.84,1.79-1.16,2.76h2.27c-.31-.98-.66-1.89-1.12-2.76Z"/><path d="M62.37,19.57c.07-.11,.13-.17,.16-.24,.64-1.34,1.2-2.71,1.54-4.16,.06-.27,.09-.56,.13-.83,.04-.3-.07-.52-.35-.66-.1-.05-.19-.12-.28-.18-.14-.11-.21-.26-.12-.41,.06-.11,.19-.21,.31-.24,.17-.04,.36-.02,.55-.02,.37,0,.73,0,1.1,0,.2,0,.4,.05,.48,.27,.07,.21,0,.39-.16,.53-.21,.18-.3,.43-.37,.69-.46,1.84-1.05,3.63-1.86,5.35-.2,.42-.45,.82-.68,1.22-.39,.68-1.5,.66-1.9,0-.21-.35-.43-.7-.6-1.07-.76-1.67-1.35-3.41-1.78-5.19-.1-.41-.16-.83-.54-1.11-.14-.1-.17-.29-.1-.47,.07-.19,.24-.23,.41-.23,.75,0,1.5,0,2.24,0,.4,0,.58,.21,.48,.52-.04,.12-.15,.24-.26,.3-.23,.14-.29,.33-.24,.57,.08,.37,.15,.75,.24,1.11,.33,1.24,.71,2.46,1.26,3.63,.09,.19,.19,.37,.31,.59Z"/><path d="M36.82,13.8c-.66-.12-1.18,.02-1.59,.48-.13,.15-.26,.29-.41,.43-.14,.14-.31,.21-.5,.11-.16-.09-.16-.26-.13-.42,.08-.42,.16-.83,.26-1.24,.05-.22,.21-.33,.43-.33,.11,0,.23,0,.34,0,1.74,0,3.47,0,5.21,0,.1,0,.2,0,.3,0,.24,0,.41,.11,.47,.34,.1,.41,.18,.83,.26,1.24,.03,.15,.02,.33-.14,.41-.17,.09-.33,.03-.47-.09-.12-.12-.24-.24-.35-.37-.42-.5-.94-.69-1.63-.57-.01,.11-.03,.23-.03,.35,0,1.88,0,3.75,0,5.63,0,.32,.06,.58,.37,.74,.07,.03,.13,.11,.17,.18,.11,.19,.04,.37-.17,.43-.13,.04-.28,.04-.42,.04-.65,0-1.3,0-1.95,0-.1,0-.2-.01-.3-.02-.15-.02-.31-.07-.31-.23,0-.12,.07-.3,.16-.35,.38-.2,.42-.52,.42-.89,0-1.82,0-3.64,0-5.46,0-.13,0-.25,0-.41Z"/><path d="M128.79,13.8v.44c0,1.79,0,3.58,0,5.38,0,.11,0,.23,0,.34,0,.21,.07,.38,.27,.49,.08,.05,.17,.11,.23,.19,.18,.22,.09,.44-.18,.5-.1,.02-.2,.03-.29,.03-.69,0-1.38,0-2.07,0-.21,0-.46,.03-.54-.22-.09-.26,.12-.38,.31-.49,.18-.1,.25-.26,.26-.45,0-.08,0-.17,0-.25,0-1.86,0-3.73,0-5.59,0-.11-.01-.22-.02-.35-.52-.1-.99-.04-1.39,.31-.15,.13-.27,.29-.41,.42-.1,.1-.2,.21-.32,.27-.26,.14-.48,0-.49-.29,0-.12,.02-.25,.05-.38,.05-.28,.11-.55,.18-.83,.1-.41,.19-.48,.61-.49,.73,0,1.47,0,2.2,0,1.12,0,2.23,0,3.35,0,.48,0,.59,.09,.69,.56,.07,.33,.14,.66,.19,1,.03,.17,.04,.36-.15,.45-.19,.09-.36,0-.5-.13-.12-.12-.24-.24-.35-.37-.42-.48-.94-.65-1.63-.53Z"/><path d="M77.02,16.94c0,.88,0,1.75,0,2.63,0,.66,.11,.78,.76,.79,.38,0,.76-.03,1.14-.08,.37-.05,.69-.23,.95-.51,.12-.14,.24-.29,.39-.38,.12-.07,.29-.09,.43-.07,.17,.04,.24,.21,.2,.37-.08,.4-.17,.8-.28,1.19-.05,.18-.2,.27-.39,.28-.13,0-.25,.02-.38,.02-1.61,0-3.22,0-4.83,0-.15,0-.31,0-.46-.03-.28-.06-.36-.33-.17-.54,.02-.02,.04-.05,.06-.05,.49-.16,.47-.55,.47-.96,0-1.75,0-3.5,0-5.25,0-.33-.01-.61-.38-.76-.17-.07-.28-.25-.21-.46,.06-.21,.24-.27,.43-.27,.86,0,1.72,0,2.58,0,.21,0,.36,.09,.4,.3,.04,.21-.06,.38-.25,.43-.41,.12-.48,.42-.47,.79,0,.86,0,1.72,0,2.58Z"/><path d="M109.77,12.83c.37,0,.73,0,1.1,0,.18,0,.38,.03,.4,.23,.01,.13-.07,.32-.18,.39-.26,.18-.31,.41-.31,.7,0,1.9,0,3.81,0,5.71,0,.28,.05,.52,.32,.69,.1,.07,.18,.26,.17,.39-.01,.18-.2,.22-.36,.22-.78,0-1.55,0-2.33,0-.16,0-.32-.04-.36-.23-.04-.18,.05-.31,.19-.39,.27-.16,.32-.4,.32-.69,0-1.89,0-3.78,0-5.67,0-.29-.02-.56-.33-.72-.14-.07-.23-.22-.18-.39,.06-.2,.23-.23,.41-.23,.38,0,.76,0,1.14,0Z"/><path d="M86.89,12.83c.35,0,.71,0,1.06,0,.19,0,.39,0,.46,.22,.06,.19-.06,.34-.2,.43-.25,.16-.29,.39-.29,.66,0,1.92,0,3.84,0,5.76,0,.25,.03,.47,.28,.61,.08,.05,.15,.13,.19,.22,.09,.18,.02,.34-.17,.4-.11,.03-.22,.04-.33,.04-.66,0-1.33,0-1.99,0-.03,0-.06,0-.08,0-.18-.02-.39-.01-.46-.23-.07-.22,.09-.34,.25-.44,.17-.11,.24-.27,.25-.46,0-.15,.02-.31,.02-.46,0-1.69,0-3.39,0-5.08,0-.16-.01-.31-.02-.47,0-.23-.07-.42-.28-.53-.04-.02-.08-.05-.09-.08-.05-.12-.13-.26-.1-.37,.02-.08,.18-.15,.29-.19,.07-.03,.17-.01,.25-.01,.32,0,.65,0,.97,0h0Z"/></g><g><path d="M39.96,27.57c-.29,.05-.4-.11-.53-.23-.42-.37-.9-.57-1.47-.55-.34,.01-.42,.09-.45,.42,0,.08,0,.17,0,.25,0,1.59,0,3.19,0,4.78,0,.11,0,.23,.01,.34,.02,.19,.09,.36,.28,.43,.05,.02,.11,.04,.15,.08,.06,.07,.1,.15,.15,.23-.09,.06-.17,.11-.26,.16-.01,0-.03,0-.04,0-.48,0-.96,0-1.44,0-.1,0-.24-.06-.27-.13-.07-.14,.06-.23,.19-.28,.33-.11,.4-.36,.4-.67,0-1.69,0-3.39,0-5.08,0-.47-.09-.55-.55-.54-.52,0-.96,.18-1.35,.53-.14,.13-.26,.31-.55,.26-.06-.37-.03-.74,.11-1.09,.03-.08,.16-.14,.26-.17,.1-.03,.22-.02,.34-.02,1.44,0,2.88,0,4.32,0,.59,0,.67,.07,.72,.68,.02,.19,0,.39,0,.59Z"/><path d="M39.26,31.22c0-1.44,.97-2.44,2.39-2.45,1.48-.01,2.47,.94,2.48,2.41,.01,1.46-.97,2.45-2.43,2.45-1.45,0-2.43-.97-2.44-2.41Zm4.1,.01h-.04c-.02-.2-.02-.38-.05-.56-.12-.74-.64-1.3-1.29-1.4-.71-.11-1.34,.2-1.65,.84-.34,.71-.34,1.46,0,2.17,.27,.58,.76,.86,1.4,.85,.64,0,1.12-.31,1.37-.89,.14-.32,.18-.67,.27-1.01Z"/><path d="M48.4,32.88c-.08,.07-.14,.11-.19,.16-.51,.53-1.14,.64-1.83,.54-.47-.07-.82-.33-.98-.78-.1-.28-.17-.57-.19-.86-.03-.59-.03-1.19-.02-1.78,0-.36-.04-.68-.4-.86-.02-.01-.04-.04-.05-.06-.01-.02-.02-.05-.03-.08,.21-.28,.71-.48,.99-.37,.08,.03,.15,.13,.17,.21,.04,.15,.04,.31,.04,.46,0,.64,0,1.27,0,1.91,0,.31,.03,.62,.11,.92,.13,.52,.48,.76,1.03,.78,.56,.01,1.03-.25,1.19-.71,.06-.18,.09-.39,.09-.58,.01-.59,0-1.19,0-1.78,0-.26-.05-.46-.28-.61-.22-.14-.2-.28,.02-.42,.09-.06,.2-.1,.31-.13,.52-.17,.69-.06,.69,.48,0,.99,0,1.98,0,2.97,0,.39,.05,.73,.5,.87,.06,.02,.14,.13,.13,.18,0,.06-.1,.15-.17,.16-.27,.02-.53,.03-.8,.02-.16,0-.26-.11-.29-.26-.03-.1-.03-.21-.05-.37Z"/><path d="M51.49,29.98c.14-.23,.21-.42,.34-.57,.19-.22,.4-.43,.64-.59,.17-.12,.41-.12,.6,.03,.21,.17,.23,.41,.2,.66-.01,.14-.11,.2-.24,.18-.11-.02-.22-.05-.32-.09-.33-.12-.51-.1-.68,.2-.16,.27-.33,.58-.36,.89-.07,.66-.06,1.32-.08,1.98,0,.2,.09,.35,.3,.41,.05,.01,.12,.01,.16,.05,.07,.07,.13,.16,.19,.24-.08,.04-.16,.12-.24,.13-.47,.01-.93,.01-1.4,0-.07,0-.14-.07-.21-.11,.04-.08,.07-.2,.13-.23,.29-.12,.32-.36,.31-.63,0-.73-.01-1.47,0-2.2,0-.34-.09-.59-.42-.75-.28-.14-.29-.29-.06-.48,.43-.36,.73-.54,.98,.27,.06,.18,.09,.37,.15,.63Z"/><path d="M129.27,30.14l-1.65,.26c-.01,.07-.03,.12-.03,.17,0,.64,0,1.27,0,1.91,0,.25,.08,.44,.34,.52,.03,0,.06,.01,.08,.03,.08,.09,.23,.18,.23,.26,0,.17-.18,.19-.32,.2-.48,0-.96,0-1.44,0-.1,0-.24-.06-.28-.14-.07-.14,.06-.24,.17-.29,.32-.14,.37-.4,.37-.7,0-1.65,0-3.3,0-4.95,0-.3-.09-.55-.39-.69-.08-.04-.12-.17-.17-.26,.09-.05,.18-.15,.27-.14,1.28,.01,2.57-.1,3.85,.08,.07,0,.14,.02,.21,.04,1.28,.3,1.72,1.67,.84,2.66-.21,.24-.5,.4-.77,.59-.11,.08-.25,.13-.4,.2,.07,.11,.13,.2,.18,.3,.37,.68,.75,1.36,1.1,2.05,.18,.34,.33,.69,.67,.9,.07,.04,.13,.18,.11,.24-.02,.06-.15,.13-.23,.13-.52,.01-1.04,.01-1.57,0-.07,0-.18-.09-.21-.16-.02-.04,.05-.15,.1-.21,.11-.12,.3-.21,.33-.34,.03-.18-.03-.39-.1-.57-.31-.77-.78-1.43-1.3-2.06Zm-1.64-.33c.9-.09,1.77-.23,2.55-.7,.07-.04,.14-.1,.2-.15,.63-.52,.66-1.68-.42-1.99-.58-.17-1.17-.18-1.76-.14-.48,.04-.6,.18-.61,.68,0,.68,0,1.35,0,2.03,0,.08,.02,.16,.04,.28Z"/><path d="M149.32,33.51l-.11-.68c-.1,.08-.19,.15-.26,.22-.62,.57-1.35,.68-2.13,.51-.5-.11-.86-.44-.96-.96-.12-.59-.01-1.13,.46-1.54,.4-.35,.88-.51,1.38-.58,.44-.06,.89-.09,1.38-.13-.03-.42-.23-.72-.59-.91-.48-.24-.97-.26-1.46-.02-.18,.09-.34,.2-.53,.26-.1,.03-.27,0-.34-.08-.11-.11-.08-.28,.03-.38,.12-.11,.26-.22,.42-.27,.77-.26,1.55-.26,2.32,.03,.43,.16,.73,.49,.86,.93,.1,.36,.16,.74,.19,1.12,.03,.48,.02,.96,0,1.44,0,.28,.06,.49,.33,.63,.08,.04,.18,.16,.18,.24,0,.16-.16,.17-.29,.17-.28,0-.56,0-.87,0Zm-.14-2.71c-.67-.02-1.3,.03-1.87,.35-.19,.11-.37,.27-.49,.45-.21,.31-.23,.67-.06,1.01,.17,.35,.49,.49,.87,.49,.46,0,.87-.13,1.2-.45,.13-.12,.25-.28,.3-.45,.13-.45,.11-.91,.06-1.4Z"/><path d="M142.42,33.43c-.58,.1-1.1,.12-1.73-.03,.15-.13,.22-.22,.3-.27,.15-.08,.25-.19,.25-.36-.01-.8,.02-1.61-.06-2.41-.09-.92-.99-1.32-1.8-.85-.27,.16-.45,.38-.51,.69-.04,.19-.05,.39-.06,.59,0,.58,0,1.16,0,1.74,0,.28,.02,.53,.31,.67,.04,.02,.06,.09,.11,.17-.1,.05-.17,.11-.26,.13-.45,.07-1.1,.01-1.34-.12,.05-.07,.07-.16,.13-.19,.25-.13,.31-.34,.3-.6,0-.78-.01-1.55,0-2.33,0-.37-.06-.67-.45-.81-.03-.01-.05-.06-.09-.1,.11-.3,.36-.42,.61-.54,.17-.08,.3,.01,.38,.17,.08,.17,.14,.34,.22,.55,.11-.1,.21-.19,.31-.28,.48-.42,1.04-.55,1.66-.45,.55,.09,.93,.42,1.08,.95,.11,.39,.16,.8,.18,1.21,.03,.53,.01,1.07,0,1.61,0,.25,.01,.48,.28,.61,.06,.03,.08,.13,.16,.26Z"/><path d="M133.47,31.78c.02,.67,.72,1.23,1.28,1.25,.51,.02,.98-.09,1.4-.38,.16-.11,.33-.21,.49-.31,.17,.28,.17,.35-.05,.56-.51,.5-1.12,.74-1.83,.73-1.36-.02-2.23-.93-2.2-2.3,.03-1.25,.83-2.26,2-2.51,.43-.09,.87-.08,1.3,.05,.48,.15,.81,.45,.89,.97,.08,.51-.13,.91-.55,1.19-.54,.36-1.16,.5-1.79,.61-.3,.05-.61,.09-.93,.14Zm-.05-.5c.19-.02,.38-.03,.58-.06,.51-.09,1.03-.18,1.48-.46,.4-.26,.57-.65,.44-1.04-.1-.32-.44-.52-.88-.53-1.03-.03-1.87,1.05-1.62,2.1Z"/><path d="M150.84,26.71c.35-.4,.74-.53,1.23-.64,.02,.23,.06,.42,.06,.61,0,1.86,0,3.73,0,5.59,0,.13,0,.25,0,.38,0,.2,.06,.35,.27,.43,.11,.04,.2,.13,.37,.25-.18,.08-.27,.15-.36,.15-.41,.01-.82,.01-1.23,0-.08,0-.17-.08-.25-.12,.05-.09,.09-.22,.16-.26,.26-.12,.29-.32,.29-.56,0-1.71,0-3.42,0-5.12,0-.27-.07-.47-.32-.59-.06-.03-.12-.07-.22-.13Z"/><path d="M144.34,28.88c.23,0,.41,0,.59,0,.13,0,.26,0,.37,.05,.08,.03,.18,.13,.17,.2,0,.09-.08,.21-.16,.25-.11,.05-.25,.05-.37,.05-.18,0-.36,0-.57,0-.01,.16-.03,.28-.03,.4,0,.8,0,1.61,0,2.41,0,.07,0,.14,0,.21,.03,.45,.11,.52,.56,.56,.14,.01,.28,.03,.41,.07,.06,.02,.14,.11,.14,.17,0,.06-.07,.15-.13,.19-.07,.04-.16,.05-.24,.05-.35,0-.71,.01-1.06,0-.33-.01-.4-.08-.41-.41-.01-.59,0-1.18-.01-1.78,0-.6,0-1.21,0-1.85-.18-.02-.33-.03-.48-.05-.15-.02-.27-.08-.27-.26,0-.16,.1-.25,.24-.25,.51,0,.63-.33,.66-.75,.01-.18,.04-.36,.07-.54,.03-.15,.05-.31,.11-.45,.03-.07,.15-.15,.22-.14,.05,0,.14,.13,.15,.21,.02,.35,.02,.7,.02,1.06,0,.18,0,.36,0,.59Z"/><path d="M114.04,28.32c-.17-.09-.28-.13-.36-.2-.07-.06-.09-.17-.14-.26-.83-1.6-2.91-1.59-3.82-.38-.24,.32-.45,.69-.57,1.08-.28,.85-.28,1.72-.04,2.59,.63,2.31,3.2,2.41,4.44,1.15,.12-.12,.23-.25,.35-.37,.09-.09,.2-.18,.33-.09,.15,.1,.14,.25,.06,.37-.13,.21-.27,.44-.45,.61-.39,.38-.87,.63-1.4,.77-.7,.18-1.4,.18-2.09,0-1.14-.31-1.87-1.08-2.21-2.2-.28-.9-.28-1.81-.01-2.72,.43-1.48,1.71-2.47,3.25-2.53,.7-.03,1.38,.06,2.03,.32,.42,.17,.63,.45,.62,.9,0,.29,0,.58,0,.97Z"/><path d="M118.17,30.38c-.03-.52-.28-.82-.68-.99-.46-.2-.93-.21-1.39,.03-.16,.08-.32,.18-.49,.25-.13,.05-.28,.06-.38-.08-.11-.16-.04-.32,.08-.41,.18-.13,.38-.25,.59-.31,.61-.16,1.23-.15,1.84,0,.63,.16,1.04,.57,1.18,1.2,.08,.34,.11,.7,.12,1.05,.02,.44,.01,.88,0,1.31,0,.29,.06,.52,.35,.66,.08,.04,.12,.16,.18,.25-.09,.05-.18,.14-.27,.15-.19,.03-.39,.03-.59,.03-.3,0-.33-.05-.36-.35,0-.11-.01-.22-.02-.39-.12,.1-.2,.17-.28,.24-.62,.59-1.37,.72-2.17,.52-1.05-.26-1.35-1.63-.56-2.42,.29-.29,.64-.47,1.03-.56,.44-.09,.89-.13,1.34-.19,.15-.02,.3,0,.47,0Zm.11,.42c-.65-.03-1.23,.04-1.78,.29-.16,.08-.32,.18-.45,.31-.31,.32-.41,.71-.24,1.13,.14,.37,.49,.56,.96,.56,.38,0,.72-.12,1.03-.34,.28-.2,.46-.47,.48-.81,.02-.36,0-.73,0-1.14Z"/><path d="M122.09,33.31c-.16,.1-.21,.16-.27,.16-.52,0-1.04,.01-1.56,0-.06,0-.11-.06-.22-.12,.1-.1,.16-.2,.25-.24,.2-.1,.28-.26,.28-.47,0-.8,0-1.61,0-2.41,0-.29-.12-.5-.39-.65-.34-.18-.34-.31-.04-.55,.46-.39,.74-.31,.92,.26,.06,.2,.09,.41,.16,.71,.09-.17,.16-.28,.22-.39,.17-.31,.37-.6,.7-.77,.47-.24,.9,.02,.89,.55,0,.24-.12,.34-.35,.29-.08-.02-.16-.06-.24-.09-.33-.13-.48-.09-.69,.19-.25,.34-.38,.73-.4,1.14-.03,.58-.01,1.15-.02,1.73,0,.24,.11,.36,.33,.42,.12,.04,.24,.12,.44,.22Z"/><path d="M102.14,29.48c.1-.02,.22-.07,.34-.07,.45,0,.9,0,1.35,0,.08,0,.17,.01,.25,.04,.15,.05,.19,.21,.07,.33-.02,.02-.04,.04-.07,.05-.55,.15-.77,.62-1.02,1.06-.24,.43-.53,.83-.8,1.26,.5,.57,1.08,.93,1.88,.77,.04,0,.08-.01,.13-.02,.14-.03,.32-.07,.35,.11,.02,.1-.09,.27-.19,.34-.47,.31-.99,.29-1.51,.19-.5-.1-.9-.38-1.28-.74-.13,.1-.25,.2-.37,.29-.72,.54-1.52,.74-2.39,.51-1.35-.35-1.89-1.88-1.05-2.99,.23-.31,.57-.54,.87-.79,.1-.09,.23-.15,.37-.24-.08-.13-.16-.25-.22-.37-.15-.3-.32-.6-.41-.92-.25-.86,.19-1.71,1.03-2.01,.48-.17,.97-.2,1.45-.03,.99,.35,1.31,1.47,.62,2.26-.27,.3-.62,.53-.94,.77-.14,.11-.3,.2-.46,.29,.27,.56,1.32,1.88,1.76,2.2,.33-.36,.62-.76,.78-1.23,.13-.39,.07-.52-.29-.71-.12-.06-.28-.09-.25-.33Zm-.85,2.9l-1.98-2.44c-.45,.25-.78,.55-.98,.99-.38,.86,.02,1.81,.88,2.05,.81,.23,1.48-.04,2.08-.61Zm-1.49-3.23c.46-.25,.88-.5,1.22-.87,.56-.62,.26-1.52-.56-1.7-.87-.19-1.56,.57-1.3,1.43,.12,.41,.34,.77,.64,1.14Z"/><path d="M63.46,30.02c-.07,.37-.12,.85-.25,1.3-.36,1.19-1.48,2.46-3.46,2.37-1.52-.07-2.78-1.09-3.15-2.62-.21-.85-.2-1.71,.07-2.55,.51-1.59,1.88-2.48,3.62-2.38,1.48,.09,2.75,1.26,3.04,2.8,.06,.32,.08,.64,.13,1.08Zm-1.03-.11c0-.81-.14-1.47-.42-2.01-.32-.6-.79-1.03-1.46-1.19-1.32-.31-2.44,.33-2.87,1.65-.28,.85-.28,1.72-.12,2.59,.08,.44,.23,.84,.48,1.21,.31,.46,.72,.78,1.27,.92,1.2,.31,2.28-.2,2.79-1.33,.27-.59,.35-1.21,.35-1.85Z"/><path d="M65.86,35.31c-.37,.11-1.36,.12-1.75,0-.07-.17,.04-.27,.16-.34,.29-.16,.33-.43,.33-.73,0-1.1,0-2.2,0-3.3,0-.28,0-.56-.01-.85,0-.3-.12-.51-.44-.58-.09-.02-.17-.08-.27-.13,.14-.38,.42-.54,.76-.61,.21-.04,.36,.07,.44,.25,.07,.15,.12,.32,.19,.52,.12-.1,.22-.19,.33-.27,1.2-.99,2.89-.48,3.31,1.02,.17,.58,.18,1.18,0,1.76-.31,1.07-1.21,1.68-2.44,1.57-.23-.02-.47-.1-.69-.19-.13-.05-.24-.17-.17-.34,.06-.15,.2-.13,.33-.11,.18,.04,.36,.09,.54,.12,.62,.09,1.16-.16,1.45-.72,.33-.66,.39-1.36,.12-2.05-.32-.85-1.2-1.19-2.02-.79-.44,.21-.7,.53-.69,1.06,.02,1.23,0,2.46,0,3.69,0,.3,.04,.56,.37,.69,.14,.05,.24,.16,.16,.33Z"/><path d="M81.32,32.81c-.09,.08-.15,.11-.19,.16-.53,.55-1.2,.71-1.94,.64-.58-.06-1.04-.33-1.21-.9-.19-.62-.08-1.21,.44-1.66,.4-.34,.88-.5,1.39-.58,.36-.05,.73-.06,1.09-.09,.08,0,.16-.02,.27-.04-.04-.44-.25-.73-.61-.91-.47-.23-.95-.26-1.43-.03-.18,.08-.35,.19-.53,.27-.13,.05-.29,.07-.38-.08-.1-.15-.05-.32,.08-.42,.15-.12,.33-.23,.51-.28,.67-.19,1.34-.18,2,.01,.54,.16,.91,.51,1.06,1.05,.1,.35,.15,.72,.17,1.08,.03,.46,.02,.93,0,1.4,0,.29,.04,.52,.34,.66,.08,.04,.12,.16,.18,.25-.09,.05-.17,.14-.27,.15-.19,.03-.39,.03-.59,.03-.3,0-.34-.05-.37-.34-.01-.11-.02-.21-.03-.38Zm0-1.99c-.53-.06-.98,.01-1.41,.13-.32,.08-.61,.22-.84,.46-.32,.33-.38,.72-.25,1.14,.12,.36,.5,.56,.96,.56,.44,0,.84-.14,1.15-.45,.15-.15,.29-.37,.32-.57,.07-.4,.05-.81,.07-1.26Z"/><path d="M88.28,28.77c1.47,0,2.45,.97,2.45,2.44,0,1.44-.98,2.42-2.43,2.42-1.46,0-2.47-1-2.46-2.44,0-1.42,1.01-2.42,2.44-2.42Zm1.68,2.46c-.05-.4-.11-.77-.29-1.12-.28-.54-.73-.84-1.35-.85-.63,0-1.09,.27-1.37,.81-.38,.73-.38,1.5-.02,2.24,.27,.55,.75,.83,1.36,.83,.64,0,1.12-.29,1.38-.87,.14-.33,.2-.69,.29-1.04Z"/><path d="M70.54,31.78c.09,.68,.57,1.16,1.19,1.24,.54,.07,1.03-.06,1.48-.37,.16-.11,.33-.21,.49-.31,.25,.21,.13,.37,0,.52-.34,.37-.77,.63-1.27,.71-.38,.06-.8,.07-1.17,0-.81-.17-1.34-.69-1.54-1.51-.17-.7-.1-1.38,.26-2.01,.66-1.15,1.84-1.49,2.98-1.17,.47,.13,.78,.44,.86,.95,.08,.5-.1,.89-.5,1.17-.54,.39-1.18,.52-1.82,.64-.3,.06-.61,.09-.94,.14Zm-.07-.5c.59-.04,1.14-.12,1.67-.33,.23-.09,.46-.22,.64-.39,.48-.48,.27-1.19-.38-1.33-.21-.05-.45-.05-.67,0-.84,.18-1.38,1.06-1.26,2.06Z"/><path d="M84.26,27c.18,.61,.02,1.22,.12,1.85,.15,0,.3,.01,.45,.02,.13,0,.25,0,.38,.02,.15,.02,.28,.08,.27,.27,0,.18-.14,.23-.29,.25-.14,.02-.28,0-.42,.01-.12,0-.25,.01-.4,.02,0,.13-.02,.24-.03,.35,0,.83,0,1.67,0,2.5,0,.63,.04,.67,.66,.73,.1,0,.2,.01,.29,.05,.07,.04,.17,.13,.16,.2,0,.07-.11,.13-.18,.2-.02,.02-.05,.01-.08,.02-.42,0-.85,0-1.27,0-.18,0-.29-.11-.3-.3,0-.14-.01-.28-.01-.42,0-.95,0-1.89,0-2.84,0-.15,0-.3,0-.47-.2-.02-.35-.02-.51-.04-.13-.02-.24-.08-.25-.24,0-.16,.09-.26,.23-.26,.57,0,.64-.4,.69-.82,.03-.25,.06-.51,.1-.76,.03-.17,.1-.32,.38-.34Z"/><path d="M76.5,33.43c-.63,.11-1.24,.08-1.84,.02-.06-.22,.05-.29,.17-.34,.19-.09,.26-.24,.26-.44,0-.82,0-1.64,0-2.46,0-.28-.11-.48-.36-.62-.35-.2-.35-.33-.03-.58,.04-.04,.09-.07,.14-.1,.34-.22,.52-.16,.69,.21,.06,.13,.09,.27,.12,.4,.03,.12,.06,.24,.1,.46,.11-.2,.18-.33,.25-.45,.17-.28,.36-.54,.66-.7,.48-.24,.9,.02,.88,.56,0,.24-.12,.33-.35,.28-.08-.02-.16-.06-.24-.09-.31-.12-.46-.08-.66,.18-.23,.3-.37,.64-.39,1.01-.04,.6-.05,1.21-.06,1.82,0,.25,.09,.43,.37,.49,.14,.03,.28,.06,.31,.34Z"/><path d="M91.32,33.4c.15-.14,.21-.24,.29-.28,.21-.1,.27-.27,.27-.48,0-.79,0-1.58,0-2.37,0-.33-.12-.56-.43-.71-.27-.13-.27-.27-.05-.48,.49-.46,.8-.37,.99,.27,.05,.18,.08,.37,.14,.63,.12-.22,.2-.36,.29-.5,.16-.27,.36-.51,.65-.65,.47-.23,.9,.06,.87,.59-.01,.21-.13,.3-.34,.27-.08-.01-.16-.05-.24-.08-.36-.14-.53-.11-.71,.21-.17,.3-.33,.64-.37,.98-.07,.6-.05,1.21-.06,1.81,0,.25,.09,.44,.37,.48,.07,.01,.14,.04,.19,.08,.05,.04,.1,.12,.09,.17,0,.05-.08,.11-.14,.13-.06,.03-.14,.02-.21,.02-.39,0-.79,0-1.18,0-.11,0-.22-.05-.43-.09Z"/></g></svg>