<?xml version="1.0" encoding="utf-8"?>
<!-- Generator: Adobe Illustrator 26.2.1, SVG Export Plug-In . SVG Version: 6.00 Build 0)  -->
<svg version="1.1" id="charmingyatra-logo" xmlns="http://www.w3.org/2000/svg" xmlns:xlink="http://www.w3.org/1999/xlink" x="0px"
	 y="0px" viewBox="0 0 168.7 36.2" style="enable-background:new 0 0 168.7 36.2;" xml:space="preserve">
<style type="text/css">
	.st0{fill:#3E3F95;}
	.st1{fill:#EE4899;}
	.st2{fill:#373435;}
</style>
<g>
	<g>
		<g>
			<path class="st0" d="M19.7,11.6c0,0.2,0,0.3,0,0.4c0,3.8,0,7.6,0.1,11.4c0,0.9,0.1,1.8,0.1,2.7c0,0.6,0.2,1.3,0.4,1.9
				c0.4,1.3,1.3,2,2.6,2.2c0.8,0.2,1.6,0.2,2.5,0.2c0.9,0,1.7-0.1,2.6-0.1c0.3,0,0.5,0.1,0.7,0.3c0.5,0.4,0.8,1,0.9,1.6
				c0.1,1.4-0.9,2-1.8,2c-1.8,0-3.6,0-5.4,0c-0.2,0-0.4-0.1-0.6-0.1c-0.5-0.2-1.1-0.3-1.6-0.6c-2-0.9-3.1-2.4-3.5-4.5
				c-0.1-0.7-0.2-1.4-0.2-2.1c0-4.2,0-8.3,0.1-12.5c0-1.4,0-2.8,0-4.2c0-0.4,0-0.8,0.1-1.2c0.1-0.6,0.4-0.9,1-0.9c0.1,0,0.3,0,0.4,0
				c2.6,0,5.1,0,7.7,0c0.9,0,1.8,0,2.7,0c0.2,0,0.4,0,0.6,0.2c0.2,0.2,0.5,0.5,0.7,0.7c0.3,0.4,0.3,0.9,0.2,1.4
				c-0.2,0.5-0.5,0.9-0.9,1.2c-0.1,0.1-0.1,0.1-0.2,0.1c-0.1,0-0.2,0-0.3,0c-2.7,0-5.4,0-8,0C20.1,11.6,19.9,11.6,19.7,11.6z"/>
			<path class="st1" d="M10.8,11.6c0,0.2,0,0.3,0,0.4c0,3.8,0,7.6-0.1,11.4c0,0.9-0.1,1.8-0.1,2.7c0,0.6-0.2,1.3-0.4,1.9
				c-0.4,1.3-1.3,2-2.6,2.2c-0.8,0.2-1.6,0.2-2.5,0.2c-0.9,0-1.7-0.1-2.6-0.1c-0.3,0-0.5,0.1-0.7,0.3C1.3,31,1,31.5,1,32.2
				c-0.1,1.4,0.9,2,1.8,2c1.8,0,3.6,0,5.4,0c0.2,0,0.4-0.1,0.6-0.1c0.5-0.2,1.1-0.3,1.6-0.6c2-0.9,3.1-2.4,3.5-4.5
				c0.1-0.7,0.2-1.4,0.2-2.1c0-4.2,0-8.3-0.1-12.5c0-1.4,0-2.8,0-4.2c0-0.4,0-0.8-0.1-1.2C14,8.4,13.6,8.1,13,8c-0.1,0-0.3,0-0.4,0
				c-2.6,0-5.1,0-7.7,0C4,8,3.1,8,2.2,8C2,8,1.8,8.1,1.7,8.2C1.5,8.4,1.2,8.7,1,8.9c-0.3,0.4-0.3,0.9-0.2,1.4
				c0.2,0.5,0.5,0.9,0.9,1.2c0.1,0.1,0.1,0.1,0.2,0.1c0.1,0,0.2,0,0.3,0c2.7,0,5.4,0,8,0C10.4,11.6,10.6,11.6,10.8,11.6z"/>
		</g>
		<path class="st2" d="M15.3,5.4c-0.6,0-1.2,0-1.8,0c-0.4,0-0.5-0.1-0.5-0.5c0-1.2,0-2.4,0-3.6c0-0.4,0.1-0.5,0.5-0.5
			c1.2,0,2.4,0,3.6,0c0.4,0,0.5,0.1,0.5,0.5c0,1.2,0,2.4,0,3.6c0,0.4-0.1,0.5-0.5,0.5C16.5,5.4,15.9,5.4,15.3,5.4z"/>
	</g>
	<g>
		<path d="M44.4,17.6c0,0.8,0,1.6,0,2.4c0,0.2,0.1,0.3,0.3,0.4c0.1,0,0.2,0.1,0.2,0.1c0.1,0.1,0.1,0.3,0.1,0.4
			c0,0.1-0.1,0.2-0.2,0.2c-0.1,0-0.2,0-0.3,0c-0.7,0-1.4,0-2.1,0c-0.1,0-0.2,0-0.3,0c-0.2,0-0.3-0.1-0.3-0.3c0-0.1,0.1-0.3,0.1-0.4
			c0.4-0.2,0.5-0.5,0.5-0.9c0-1.8,0-3.5,0-5.3c0-0.4,0-0.7-0.4-0.8c-0.2-0.1-0.2-0.2-0.2-0.4c0-0.2,0.2-0.2,0.4-0.2c0.7,0,1.3,0,2,0
			c0.9,0,1.8,0,2.6,0c0.4,0,0.8,0.1,1.1,0.2c1.5,0.4,1.9,2.1,0.9,3.2c-0.2,0.2-0.4,0.4-0.7,0.5c-0.1,0.1-0.2,0.1-0.3,0.2
			c0,0.1,0,0.1,0.1,0.2c0.5,0.9,1,1.9,1.3,2.9c0.1,0.2,0.2,0.4,0.4,0.5c0.1,0,0.1,0.1,0.2,0.2c0.1,0.2,0.1,0.5-0.2,0.5
			c-0.1,0-0.2,0-0.3,0c-0.7,0-1.3,0-2,0c0,0-0.1,0-0.1,0c-0.2,0-0.4,0-0.5-0.2c-0.1-0.2,0.1-0.4,0.3-0.5c0.1-0.1,0.2-0.2,0.2-0.4
			c0-0.2-0.1-0.3-0.1-0.5c-0.3-0.6-0.6-1.3-1-1.9c-0.1-0.1-0.1-0.2-0.3-0.2C45.3,17.5,44.8,17.6,44.4,17.6z M44.4,16.6
			c0.7,0,1.4-0.1,2.1-0.4c0.1-0.1,0.2-0.1,0.3-0.2c0.5-0.4,0.6-0.9,0.5-1.5c-0.1-0.5-0.6-0.8-1.1-0.8c-0.4,0-0.8,0-1.2,0
			c-0.5,0-0.6,0.2-0.6,0.7c0,0.7,0,1.4,0,2C44.4,16.4,44.4,16.5,44.4,16.6z"/>
		<path d="M154.6,17.5c-0.5,0-0.9,0.1-1.4,0.1c0,0.1,0,0.2,0,0.3c0,0.7,0,1.3,0,2c0,0.3,0.1,0.5,0.3,0.6c0.2,0,0.3,0.2,0.3,0.3
			c0,0.2-0.1,0.3-0.2,0.3c-0.1,0-0.3,0-0.4,0c-0.7,0-1.4,0-2,0c-0.1,0-0.2,0-0.3,0c-0.1,0-0.2-0.1-0.3-0.2c-0.1-0.1,0-0.3,0.1-0.4
			c0.4-0.2,0.5-0.5,0.5-0.9c0-1.7,0-3.5,0-5.2c0-0.4,0-0.7-0.4-0.9c-0.2-0.1-0.2-0.3-0.2-0.4c0-0.2,0.2-0.2,0.4-0.2
			c0.1,0,0.1,0,0.2,0c1.4,0,2.9,0,4.3,0c0.4,0,0.8,0.1,1.3,0.1c0.7,0.1,1.2,0.5,1.4,1.3c0.2,0.8,0,1.5-0.6,2
			c-0.3,0.2-0.6,0.4-0.9,0.6c0,0,0,0.1,0,0.1c0.5,0.9,0.9,1.8,1.3,2.8c0.1,0.3,0.2,0.5,0.5,0.7c0.1,0,0.2,0.2,0.2,0.3
			c0,0.1-0.1,0.2-0.2,0.3c-0.1,0-0.3,0-0.4,0c-0.7,0-1.4,0-2,0c0,0,0,0,0,0c-0.2,0-0.4,0-0.5-0.2c-0.1-0.2,0.1-0.4,0.2-0.5
			c0.2-0.1,0.2-0.3,0.2-0.4c-0.1-0.3-0.2-0.6-0.3-0.9C155.3,18.5,155,18,154.6,17.5z M153.2,16.6c0.8,0,1.6-0.1,2.2-0.5
			c0,0,0.1,0,0.1-0.1c0.5-0.4,0.6-0.9,0.5-1.5c-0.1-0.6-0.6-0.8-1.1-0.8c-0.4,0-0.8,0-1.2,0c-0.4,0-0.6,0.2-0.6,0.6c0,0.7,0,1.4,0,2
			C153.2,16.4,153.2,16.5,153.2,16.6z"/>
		<path d="M101.3,21.2c-0.6,0-1.2,0-1.9,0c-0.2,0-0.3,0-0.5,0c-0.2,0-0.3-0.1-0.3-0.3c0-0.1,0.1-0.3,0.2-0.3
			c0.4-0.2,0.4-0.5,0.4-0.9c0-1.7,0-3.4,0-5c0-0.4-0.1-0.7-0.5-0.9c-0.1,0-0.2-0.2-0.2-0.3c0-0.1,0.2-0.3,0.3-0.3
			c0.2-0.1,0.5-0.1,0.7-0.1c1.5-0.1,3-0.1,4.4,0.2c1.6,0.4,2.6,1.3,3,2.9c0.2,0.9,0.1,1.7-0.2,2.6c-0.5,1.4-1.5,2.2-3,2.4
			C103,21.2,102.2,21.2,101.3,21.2C101.3,21.2,101.3,21.2,101.3,21.2z M101.4,17C101.4,17,101.4,17,101.4,17c0,0.9,0,1.8,0,2.7
			c0,0.6,0.1,0.7,0.7,0.7c1.1,0,1.9-0.5,2.4-1.5c0.6-1.3,0.6-2.6,0-3.8c-0.5-1-1.4-1.4-2.5-1.4c-0.5,0-0.6,0.1-0.6,0.6
			c0,0.1,0,0.3,0,0.4C101.4,15.5,101.4,16.3,101.4,17z"/>
		<path d="M91.3,15c0,0.1,0,0.2,0,0.4c0,1.4,0,2.8,0,4.2c0,0.1,0,0.2,0,0.3c0,0.3,0.1,0.5,0.4,0.6c0.3,0.1,0.4,0.3,0.4,0.4
			c0,0.2-0.1,0.3-0.6,0.3c-0.6,0-1.1,0-1.7,0c-0.1,0-0.1,0-0.2,0c-0.2,0-0.3-0.1-0.3-0.3c0-0.2,0.1-0.3,0.2-0.4c0.1,0,0.1,0,0.2-0.1
			c0.3-0.1,0.4-0.3,0.4-0.6c0-0.2,0-0.4,0-0.6c0-1.6,0-3.2,0-4.8c0-0.1,0-0.2,0-0.3c0-0.3-0.1-0.5-0.4-0.6c-0.1,0-0.2-0.1-0.3-0.1
			c-0.1-0.1-0.1-0.3-0.1-0.4c0-0.2,0.1-0.2,0.3-0.2c0.7,0,1.4,0,2,0c0.3,0,0.5,0.2,0.7,0.5c0.2,0.3,0.5,0.6,0.7,0.9
			c0.9,1.2,1.8,2.4,2.6,3.6c0.1,0.1,0.2,0.2,0.3,0.4c0-0.2,0-0.3,0-0.4c0-1.2,0-2.3,0-3.5c0-0.4-0.1-0.7-0.5-0.8
			c-0.2-0.1-0.3-0.3-0.3-0.5c0.1-0.2,0.2-0.3,0.4-0.3c0.6,0,1.2,0,1.7,0c0.2,0,0.3,0.1,0.4,0.3c0.1,0.2,0,0.4-0.2,0.5
			c-0.4,0.2-0.5,0.5-0.5,0.8c0,1.9,0,3.9,0,5.8c0,0.2,0,0.4-0.1,0.7c0,0.2-0.2,0.3-0.4,0.4c-0.5,0.1-1,0-1.3-0.5
			c-1.3-1.8-2.6-3.6-3.9-5.4C91.5,15.2,91.4,15.1,91.3,15C91.3,15,91.3,15,91.3,15z"/>
		<path d="M136.3,21.4c-0.9,0-1.7-0.2-2.5-0.8c-1.6-1.2-2.2-2.8-1.8-4.7c0.4-1.7,1.8-3,3.6-3.2c1.4-0.2,2.8,0.1,3.9,1.1
			c1,1,1.3,2.1,1.3,3.5C140.7,20,138.3,21.5,136.3,21.4z M134,17.1c0,0.3,0,0.6,0.1,1c0.1,0.6,0.2,1.1,0.6,1.6
			c0.3,0.4,0.7,0.8,1.2,0.9c1.1,0.2,2-0.2,2.5-1.3c0.1-0.2,0.1-0.4,0.2-0.6c0.2-0.9,0.2-1.8,0.1-2.7c0-0.5-0.2-1-0.5-1.5
			c-0.5-0.8-1.3-1.3-2.5-1c-0.7,0.2-1.1,0.7-1.4,1.4C134,15.6,134,16.3,134,17.1z"/>
		<path d="M162.6,21.4c-0.7,0-1.3-0.1-1.9-0.4c-0.5-0.2-1-0.6-1.3-1.1c-0.1-0.2-0.1-0.4-0.2-0.6c0-0.3,0.2-0.5,0.4-0.6
			c0.2-0.1,0.5,0,0.6,0.2c0.1,0.1,0.1,0.2,0.2,0.3c0.4,0.9,1.2,1.3,2.2,1.3c0.3,0,0.7-0.1,1-0.2c0.3-0.1,0.5-0.3,0.7-0.7
			c0.2-0.6,0-1.1-0.6-1.3c-0.6-0.2-1.3-0.3-1.9-0.4c-0.4-0.1-0.8-0.2-1.2-0.4c-0.6-0.3-1-0.7-1.1-1.4c-0.3-1.3,0.1-2.2,1-2.8
			c0.5-0.4,1-0.6,1.6-0.6c0.9-0.1,1.7,0,2.6,0.3c0.7,0.3,1,0.7,0.8,1.5c-0.1,0.3-0.4,0.5-0.6,0.2c-0.1-0.1-0.2-0.2-0.3-0.4
			c-0.5-1-1.7-1.1-2.5-0.8c-0.5,0.2-0.8,0.5-0.8,1.1c0,0.5,0.1,0.8,0.6,0.9c0.5,0.2,1,0.3,1.6,0.4c0.4,0.1,0.7,0.1,1.1,0.3
			c1.1,0.3,1.8,1.3,1.6,2.6c-0.2,1.3-1,2.2-2.4,2.5C163.4,21.4,163,21.4,162.6,21.4z"/>
		<path d="M148.3,16.7c-0.1-0.8-0.2-1.7-0.2-2.5c0-0.3-0.2-0.5-0.4-0.6c-0.1,0-0.1-0.1-0.2-0.1c-0.1-0.1-0.2-0.2-0.2-0.4
			c0.1-0.2,0.2-0.2,0.4-0.3c0.6,0,1.2,0,1.8,0c0.2,0,0.3,0.1,0.3,0.3c0,0.2,0,0.3-0.1,0.4c-0.4,0.2-0.4,0.6-0.4,1
			c0.1,1.2,0.2,2.3,0.2,3.5c0,0.4-0.1,0.9-0.2,1.3c-0.3,1-1,1.6-1.9,1.9c-1.1,0.3-2.2,0.3-3.3,0c-1.2-0.4-2-1.3-2-2.7
			c0-1,0.1-2,0.1-3c0-0.4,0.1-0.8,0.1-1.2c0-0.3-0.1-0.5-0.3-0.7c-0.2-0.1-0.3-0.3-0.2-0.5c0-0.2,0.2-0.3,0.5-0.3c0.8,0,1.6,0,2.4,0
			c0.3,0,0.4,0.1,0.5,0.3c0,0.2-0.1,0.4-0.3,0.5c-0.2,0.1-0.4,0.3-0.4,0.5c-0.3,1.6-0.4,3.1-0.1,4.7c0,0.1,0.1,0.3,0.1,0.4
			c0.2,0.7,0.7,1.1,1.5,1.2c0.3,0,0.7,0,1,0c0.6-0.1,1-0.5,1.2-1.1c0.2-0.5,0.2-1,0.2-1.5C148.3,17.5,148.3,17.1,148.3,16.7
			C148.3,16.7,148.3,16.7,148.3,16.7z"/>
		<path d="M69.1,16.1c0.8,0,1.5,0,2.2,0c0.1,0,0.3-0.1,0.4-0.2c0.4-0.2,0.7-0.1,0.7,0.4c0,0.3,0,0.5,0,0.8c0,0.4-0.3,0.5-0.6,0.3
			c-0.5-0.3-1-0.3-1.5-0.3c-0.4,0-0.8,0-1.3,0c0,0.1,0,0.2,0,0.3c0,0.7,0,1.5,0,2.2c0,0.5,0.1,0.6,0.6,0.6c0.5,0,1.1,0,1.6,0
			c0.6,0,1.1-0.2,1.4-0.7c0-0.1,0.1-0.1,0.2-0.2c0.3-0.2,0.6-0.1,0.6,0.3c0,0.3,0,0.6-0.1,0.9c-0.1,0.4-0.2,0.5-0.6,0.5
			c-0.1,0-0.2,0-0.3,0c-1.8,0-3.7,0-5.5,0c-0.1,0-0.2,0-0.3,0c-0.1,0-0.2-0.1-0.3-0.2c0-0.1,0-0.3,0.1-0.3c0.5-0.2,0.4-0.6,0.4-1
			c0-1.8,0-3.6,0-5.3c0-0.3,0-0.6-0.3-0.7c-0.1-0.1-0.2-0.2-0.1-0.4c0.1-0.2,0.2-0.2,0.4-0.2c0.6,0,1.1,0,1.7,0c1.2,0,2.3,0,3.5,0
			c0.8,0,1,0.2,1,1c0,0.1,0,0.3,0,0.4c0,0.3-0.2,0.4-0.5,0.3c-0.1-0.1-0.2-0.1-0.3-0.2c-0.3-0.4-0.8-0.5-1.3-0.6c-0.5,0-0.9,0-1.4,0
			c-0.4,0-0.5,0.1-0.6,0.5c0,0.1,0,0.3,0,0.4C69.1,15.1,69.1,15.6,69.1,16.1z"/>
		<path d="M55.3,18.5c-1,0-2,0-3.1,0c-0.1,0.5-0.3,1-0.4,1.5c-0.1,0.2,0,0.3,0.2,0.4c0.1,0.1,0.1,0.1,0.2,0.2
			c0.1,0.1,0.2,0.3,0.1,0.4c-0.1,0.1-0.2,0.2-0.3,0.2c-0.5,0-1,0-1.6,0c-0.1,0-0.3-0.1-0.3-0.2c-0.1-0.2,0-0.3,0.1-0.4
			c0.3-0.2,0.4-0.5,0.5-0.8c0.5-1.5,1.1-3,1.7-4.5c0.2-0.6,0.5-1.2,0.8-1.7c0.1-0.2,0.2-0.4,0.4-0.6c0.3-0.4,1.2-0.4,1.5,0.1
			c0.2,0.3,0.3,0.5,0.4,0.8c0.9,1.8,1.6,3.8,2.2,5.7c0.1,0.4,0.2,0.7,0.5,1c0.1,0.1,0.1,0.2,0.1,0.4c0,0.2-0.2,0.2-0.3,0.2
			c-0.1,0-0.1,0-0.2,0c-0.7,0-1.4,0-2.1,0c-0.2,0-0.3,0-0.4-0.2c-0.1-0.2,0-0.4,0.2-0.5c0.2-0.1,0.3-0.3,0.2-0.5
			C55.6,19.5,55.4,19,55.3,18.5z M53.8,14.7c-0.4,0.5-1.1,2.4-1.1,2.8c0.6,0.1,1.9,0.1,2.2-0.1C54.6,16.5,54.3,15.6,53.8,14.7z"/>
		<path d="M117.2,18.5c-1,0-2,0-3,0c-0.2,0.5-0.4,1-0.4,1.5c0,0.1,0.1,0.3,0.1,0.4c0.1,0.1,0.2,0.1,0.2,0.2c0.2,0.2,0.1,0.5-0.2,0.5
			c-0.5,0-1.1,0-1.6,0c-0.1,0-0.3-0.1-0.3-0.2c0-0.1,0-0.3,0.1-0.4c0.4-0.2,0.5-0.6,0.6-1c0.5-1.4,1-2.8,1.5-4.1
			c0.3-0.7,0.6-1.3,0.9-2c0.1-0.2,0.2-0.3,0.3-0.5c0.4-0.5,1.2-0.5,1.6,0.1c0.1,0.2,0.3,0.5,0.4,0.7c0.9,1.9,1.7,3.9,2.3,5.9
			c0.1,0.3,0.2,0.6,0.5,0.8c0.1,0.1,0.2,0.2,0.1,0.4c-0.1,0.2-0.2,0.2-0.4,0.2c-0.8,0-1.6,0-2.3,0c-0.1,0-0.3,0-0.3-0.2
			c-0.1-0.2,0-0.3,0.1-0.4c0.3-0.2,0.3-0.5,0.2-0.8C117.4,19.3,117.3,18.9,117.2,18.5z M115.7,14.7c-0.5,0.9-0.8,1.8-1.2,2.8
			c0.8,0,1.5,0,2.3,0C116.5,16.5,116.2,15.6,115.7,14.7z"/>
		<path d="M62.4,19.6c0.1-0.1,0.1-0.2,0.2-0.2c0.6-1.3,1.2-2.7,1.5-4.2c0.1-0.3,0.1-0.6,0.1-0.8c0-0.3-0.1-0.5-0.3-0.7
			c-0.1-0.1-0.2-0.1-0.3-0.2c-0.1-0.1-0.2-0.3-0.1-0.4c0.1-0.1,0.2-0.2,0.3-0.2c0.2,0,0.4,0,0.5,0c0.4,0,0.7,0,1.1,0
			c0.2,0,0.4,0,0.5,0.3c0.1,0.2,0,0.4-0.2,0.5c-0.2,0.2-0.3,0.4-0.4,0.7c-0.5,1.8-1.1,3.6-1.9,5.3c-0.2,0.4-0.4,0.8-0.7,1.2
			c-0.4,0.7-1.5,0.7-1.9,0c-0.2-0.3-0.4-0.7-0.6-1.1c-0.8-1.7-1.3-3.4-1.8-5.2c-0.1-0.4-0.2-0.8-0.5-1.1c-0.1-0.1-0.2-0.3-0.1-0.5
			c0.1-0.2,0.2-0.2,0.4-0.2c0.7,0,1.5,0,2.2,0c0.4,0,0.6,0.2,0.5,0.5c0,0.1-0.2,0.2-0.3,0.3c-0.2,0.1-0.3,0.3-0.2,0.6
			c0.1,0.4,0.1,0.7,0.2,1.1c0.3,1.2,0.7,2.5,1.3,3.6C62.1,19.2,62.2,19.4,62.4,19.6z"/>
		<path d="M36.8,13.8c-0.7-0.1-1.2,0-1.6,0.5c-0.1,0.1-0.3,0.3-0.4,0.4c-0.1,0.1-0.3,0.2-0.5,0.1c-0.2-0.1-0.2-0.3-0.1-0.4
			c0.1-0.4,0.2-0.8,0.3-1.2c0.1-0.2,0.2-0.3,0.4-0.3c0.1,0,0.2,0,0.3,0c1.7,0,3.5,0,5.2,0c0.1,0,0.2,0,0.3,0c0.2,0,0.4,0.1,0.5,0.3
			c0.1,0.4,0.2,0.8,0.3,1.2c0,0.2,0,0.3-0.1,0.4c-0.2,0.1-0.3,0-0.5-0.1c-0.1-0.1-0.2-0.2-0.4-0.4c-0.4-0.5-0.9-0.7-1.6-0.6
			c0,0.1,0,0.2,0,0.4c0,1.9,0,3.8,0,5.6c0,0.3,0.1,0.6,0.4,0.7c0.1,0,0.1,0.1,0.2,0.2c0.1,0.2,0,0.4-0.2,0.4c-0.1,0-0.3,0-0.4,0
			c-0.6,0-1.3,0-1.9,0c-0.1,0-0.2,0-0.3,0c-0.1,0-0.3-0.1-0.3-0.2c0-0.1,0.1-0.3,0.2-0.4c0.4-0.2,0.4-0.5,0.4-0.9c0-1.8,0-3.6,0-5.5
			C36.8,14.1,36.8,14,36.8,13.8z"/>
		<path d="M128.8,13.8c0,0.2,0,0.3,0,0.4c0,1.8,0,3.6,0,5.4c0,0.1,0,0.2,0,0.3c0,0.2,0.1,0.4,0.3,0.5c0.1,0,0.2,0.1,0.2,0.2
			c0.2,0.2,0.1,0.4-0.2,0.5c-0.1,0-0.2,0-0.3,0c-0.7,0-1.4,0-2.1,0c-0.2,0-0.5,0-0.5-0.2c-0.1-0.3,0.1-0.4,0.3-0.5
			c0.2-0.1,0.3-0.3,0.3-0.5c0-0.1,0-0.2,0-0.3c0-1.9,0-3.7,0-5.6c0-0.1,0-0.2,0-0.4c-0.5-0.1-1,0-1.4,0.3c-0.1,0.1-0.3,0.3-0.4,0.4
			c-0.1,0.1-0.2,0.2-0.3,0.3c-0.3,0.1-0.5,0-0.5-0.3c0-0.1,0-0.3,0-0.4c0.1-0.3,0.1-0.6,0.2-0.8c0.1-0.4,0.2-0.5,0.6-0.5
			c0.7,0,1.5,0,2.2,0c1.1,0,2.2,0,3.3,0c0.5,0,0.6,0.1,0.7,0.6c0.1,0.3,0.1,0.7,0.2,1c0,0.2,0,0.4-0.1,0.4c-0.2,0.1-0.4,0-0.5-0.1
			c-0.1-0.1-0.2-0.2-0.3-0.4C130,13.9,129.5,13.7,128.8,13.8z"/>
		<path d="M77,16.9c0,0.9,0,1.8,0,2.6c0,0.7,0.1,0.8,0.8,0.8c0.4,0,0.8,0,1.1-0.1c0.4-0.1,0.7-0.2,1-0.5c0.1-0.1,0.2-0.3,0.4-0.4
			c0.1-0.1,0.3-0.1,0.4-0.1c0.2,0,0.2,0.2,0.2,0.4c-0.1,0.4-0.2,0.8-0.3,1.2c0,0.2-0.2,0.3-0.4,0.3c-0.1,0-0.3,0-0.4,0
			c-1.6,0-3.2,0-4.8,0c-0.2,0-0.3,0-0.5,0c-0.3-0.1-0.4-0.3-0.2-0.5c0,0,0,0,0.1-0.1c0.5-0.2,0.5-0.6,0.5-1c0-1.8,0-3.5,0-5.3
			c0-0.3,0-0.6-0.4-0.8c-0.2-0.1-0.3-0.2-0.2-0.5c0.1-0.2,0.2-0.3,0.4-0.3c0.9,0,1.7,0,2.6,0c0.2,0,0.4,0.1,0.4,0.3
			c0,0.2-0.1,0.4-0.3,0.4C77.1,13.7,77,14,77,14.4C77,15.2,77,16.1,77,16.9z"/>
		<path d="M109.8,12.8c0.4,0,0.7,0,1.1,0c0.2,0,0.4,0,0.4,0.2c0,0.1-0.1,0.3-0.2,0.4c-0.3,0.2-0.3,0.4-0.3,0.7c0,1.9,0,3.8,0,5.7
			c0,0.3,0,0.5,0.3,0.7c0.1,0.1,0.2,0.3,0.2,0.4c0,0.2-0.2,0.2-0.4,0.2c-0.8,0-1.6,0-2.3,0c-0.2,0-0.3,0-0.4-0.2
			c0-0.2,0.1-0.3,0.2-0.4c0.3-0.2,0.3-0.4,0.3-0.7c0-1.9,0-3.8,0-5.7c0-0.3,0-0.6-0.3-0.7c-0.1-0.1-0.2-0.2-0.2-0.4
			c0.1-0.2,0.2-0.2,0.4-0.2C109,12.8,109.4,12.8,109.8,12.8z"/>
		<path d="M86.9,12.8c0.4,0,0.7,0,1.1,0c0.2,0,0.4,0,0.5,0.2c0.1,0.2-0.1,0.3-0.2,0.4c-0.3,0.2-0.3,0.4-0.3,0.7c0,1.9,0,3.8,0,5.8
			c0,0.3,0,0.5,0.3,0.6c0.1,0,0.1,0.1,0.2,0.2c0.1,0.2,0,0.3-0.2,0.4c-0.1,0-0.2,0-0.3,0c-0.7,0-1.3,0-2,0c0,0-0.1,0-0.1,0
			c-0.2,0-0.4,0-0.5-0.2c-0.1-0.2,0.1-0.3,0.2-0.4c0.2-0.1,0.2-0.3,0.2-0.5c0-0.2,0-0.3,0-0.5c0-1.7,0-3.4,0-5.1c0-0.2,0-0.3,0-0.5
			c0-0.2-0.1-0.4-0.3-0.5c0,0-0.1,0-0.1-0.1c0-0.1-0.1-0.3-0.1-0.4c0-0.1,0.2-0.1,0.3-0.2c0.1,0,0.2,0,0.3,0
			C86.2,12.8,86.6,12.8,86.9,12.8C86.9,12.8,86.9,12.8,86.9,12.8z"/>
	</g>
	<g>
		<path d="M40,27.6c-0.3,0.1-0.4-0.1-0.5-0.2C39,27,38.5,26.8,38,26.8c-0.3,0-0.4,0.1-0.5,0.4c0,0.1,0,0.2,0,0.3c0,1.6,0,3.2,0,4.8
			c0,0.1,0,0.2,0,0.3c0,0.2,0.1,0.4,0.3,0.4c0.1,0,0.1,0,0.1,0.1c0.1,0.1,0.1,0.2,0.2,0.2c-0.1,0.1-0.2,0.1-0.3,0.2c0,0,0,0,0,0
			c-0.5,0-1,0-1.4,0c-0.1,0-0.2-0.1-0.3-0.1c-0.1-0.1,0.1-0.2,0.2-0.3c0.3-0.1,0.4-0.4,0.4-0.7c0-1.7,0-3.4,0-5.1
			c0-0.5-0.1-0.5-0.5-0.5c-0.5,0-1,0.2-1.3,0.5c-0.1,0.1-0.3,0.3-0.6,0.3c-0.1-0.4,0-0.7,0.1-1.1c0-0.1,0.2-0.1,0.3-0.2
			c0.1,0,0.2,0,0.3,0c1.4,0,2.9,0,4.3,0c0.6,0,0.7,0.1,0.7,0.7C40,27.2,40,27.4,40,27.6z"/>
		<path d="M39.3,31.2c0-1.4,1-2.4,2.4-2.5c1.5,0,2.5,0.9,2.5,2.4c0,1.5-1,2.5-2.4,2.5C40.2,33.6,39.3,32.7,39.3,31.2z M43.4,31.2
			C43.3,31.2,43.3,31.2,43.4,31.2c-0.1-0.2-0.1-0.4-0.1-0.6c-0.1-0.7-0.6-1.3-1.3-1.4c-0.7-0.1-1.3,0.2-1.7,0.8
			c-0.3,0.7-0.3,1.5,0,2.2c0.3,0.6,0.8,0.9,1.4,0.9c0.6,0,1.1-0.3,1.4-0.9C43.2,31.9,43.3,31.6,43.4,31.2z"/>
		<path d="M48.4,32.9C48.3,33,48.3,33,48.2,33c-0.5,0.5-1.1,0.6-1.8,0.5c-0.5-0.1-0.8-0.3-1-0.8c-0.1-0.3-0.2-0.6-0.2-0.9
			c0-0.6,0-1.2,0-1.8c0-0.4,0-0.7-0.4-0.9c0,0,0,0-0.1-0.1c0,0,0-0.1,0-0.1c0.2-0.3,0.7-0.5,1-0.4c0.1,0,0.2,0.1,0.2,0.2
			c0,0.1,0,0.3,0,0.5c0,0.6,0,1.3,0,1.9c0,0.3,0,0.6,0.1,0.9c0.1,0.5,0.5,0.8,1,0.8c0.6,0,1-0.3,1.2-0.7c0.1-0.2,0.1-0.4,0.1-0.6
			c0-0.6,0-1.2,0-1.8c0-0.3,0-0.5-0.3-0.6c-0.2-0.1-0.2-0.3,0-0.4c0.1-0.1,0.2-0.1,0.3-0.1c0.5-0.2,0.7-0.1,0.7,0.5c0,1,0,2,0,3
			c0,0.4,0.1,0.7,0.5,0.9c0.1,0,0.1,0.1,0.1,0.2c0,0.1-0.1,0.1-0.2,0.2c-0.3,0-0.5,0-0.8,0c-0.2,0-0.3-0.1-0.3-0.3
			C48.4,33.1,48.4,33,48.4,32.9z"/>
		<path d="M51.5,30c0.1-0.2,0.2-0.4,0.3-0.6c0.2-0.2,0.4-0.4,0.6-0.6c0.2-0.1,0.4-0.1,0.6,0c0.2,0.2,0.2,0.4,0.2,0.7
			c0,0.1-0.1,0.2-0.2,0.2c-0.1,0-0.2-0.1-0.3-0.1c-0.3-0.1-0.5-0.1-0.7,0.2c-0.2,0.3-0.3,0.6-0.4,0.9c-0.1,0.7-0.1,1.3-0.1,2
			c0,0.2,0.1,0.3,0.3,0.4c0.1,0,0.1,0,0.2,0c0.1,0.1,0.1,0.2,0.2,0.2c-0.1,0-0.2,0.1-0.2,0.1c-0.5,0-0.9,0-1.4,0
			c-0.1,0-0.1-0.1-0.2-0.1c0-0.1,0.1-0.2,0.1-0.2c0.3-0.1,0.3-0.4,0.3-0.6c0-0.7,0-1.5,0-2.2c0-0.3-0.1-0.6-0.4-0.8
			c-0.3-0.1-0.3-0.3-0.1-0.5c0.4-0.4,0.7-0.5,1,0.3C51.4,29.5,51.4,29.7,51.5,30z"/>
		<path d="M129.3,30.1c-0.6,0.1-1.1,0.2-1.6,0.3c0,0.1,0,0.1,0,0.2c0,0.6,0,1.3,0,1.9c0,0.3,0.1,0.4,0.3,0.5c0,0,0.1,0,0.1,0
			c0.1,0.1,0.2,0.2,0.2,0.3c0,0.2-0.2,0.2-0.3,0.2c-0.5,0-1,0-1.4,0c-0.1,0-0.2-0.1-0.3-0.1c-0.1-0.1,0.1-0.2,0.2-0.3
			c0.3-0.1,0.4-0.4,0.4-0.7c0-1.7,0-3.3,0-5c0-0.3-0.1-0.5-0.4-0.7c-0.1,0-0.1-0.2-0.2-0.3c0.1-0.1,0.2-0.1,0.3-0.1
			c1.3,0,2.6-0.1,3.8,0.1c0.1,0,0.1,0,0.2,0c1.3,0.3,1.7,1.7,0.8,2.7c-0.2,0.2-0.5,0.4-0.8,0.6c-0.1,0.1-0.2,0.1-0.4,0.2
			c0.1,0.1,0.1,0.2,0.2,0.3c0.4,0.7,0.8,1.4,1.1,2c0.2,0.3,0.3,0.7,0.7,0.9c0.1,0,0.1,0.2,0.1,0.2c0,0.1-0.1,0.1-0.2,0.1
			c-0.5,0-1,0-1.6,0c-0.1,0-0.2-0.1-0.2-0.2c0,0,0.1-0.1,0.1-0.2c0.1-0.1,0.3-0.2,0.3-0.3c0-0.2,0-0.4-0.1-0.6
			C130.3,31.4,129.8,30.8,129.3,30.1z M127.6,29.8c0.9-0.1,1.8-0.2,2.5-0.7c0.1,0,0.1-0.1,0.2-0.2c0.6-0.5,0.7-1.7-0.4-2
			c-0.6-0.2-1.2-0.2-1.8-0.1c-0.5,0-0.6,0.2-0.6,0.7c0,0.7,0,1.4,0,2C127.6,29.6,127.6,29.7,127.6,29.8z"/>
		<path d="M149.3,33.5c0-0.2-0.1-0.4-0.1-0.7c-0.1,0.1-0.2,0.1-0.3,0.2c-0.6,0.6-1.4,0.7-2.1,0.5c-0.5-0.1-0.9-0.4-1-1
			c-0.1-0.6,0-1.1,0.5-1.5c0.4-0.3,0.9-0.5,1.4-0.6c0.4-0.1,0.9-0.1,1.4-0.1c0-0.4-0.2-0.7-0.6-0.9c-0.5-0.2-1-0.3-1.5,0
			c-0.2,0.1-0.3,0.2-0.5,0.3c-0.1,0-0.3,0-0.3-0.1c-0.1-0.1-0.1-0.3,0-0.4c0.1-0.1,0.3-0.2,0.4-0.3c0.8-0.3,1.6-0.3,2.3,0
			c0.4,0.2,0.7,0.5,0.9,0.9c0.1,0.4,0.2,0.7,0.2,1.1c0,0.5,0,1,0,1.4c0,0.3,0.1,0.5,0.3,0.6c0.1,0,0.2,0.2,0.2,0.2
			c0,0.2-0.2,0.2-0.3,0.2C149.9,33.5,149.6,33.5,149.3,33.5z M149.2,30.8c-0.7,0-1.3,0-1.9,0.4c-0.2,0.1-0.4,0.3-0.5,0.4
			c-0.2,0.3-0.2,0.7-0.1,1c0.2,0.3,0.5,0.5,0.9,0.5c0.5,0,0.9-0.1,1.2-0.4c0.1-0.1,0.3-0.3,0.3-0.4
			C149.3,31.8,149.2,31.3,149.2,30.8z"/>
		<path d="M142.4,33.4c-0.6,0.1-1.1,0.1-1.7,0c0.1-0.1,0.2-0.2,0.3-0.3c0.1-0.1,0.3-0.2,0.2-0.4c0-0.8,0-1.6-0.1-2.4
			c-0.1-0.9-1-1.3-1.8-0.9c-0.3,0.2-0.5,0.4-0.5,0.7c0,0.2-0.1,0.4-0.1,0.6c0,0.6,0,1.2,0,1.7c0,0.3,0,0.5,0.3,0.7
			c0,0,0.1,0.1,0.1,0.2c-0.1,0-0.2,0.1-0.3,0.1c-0.5,0.1-1.1,0-1.3-0.1c0-0.1,0.1-0.2,0.1-0.2c0.3-0.1,0.3-0.3,0.3-0.6
			c0-0.8,0-1.6,0-2.3c0-0.4-0.1-0.7-0.5-0.8c0,0-0.1-0.1-0.1-0.1c0.1-0.3,0.4-0.4,0.6-0.5c0.2-0.1,0.3,0,0.4,0.2
			c0.1,0.2,0.1,0.3,0.2,0.6c0.1-0.1,0.2-0.2,0.3-0.3c0.5-0.4,1-0.6,1.7-0.5c0.6,0.1,0.9,0.4,1.1,1c0.1,0.4,0.2,0.8,0.2,1.2
			c0,0.5,0,1.1,0,1.6c0,0.3,0,0.5,0.3,0.6C142.3,33.2,142.3,33.3,142.4,33.4z"/>
		<path d="M133.5,31.8c0,0.7,0.7,1.2,1.3,1.2c0.5,0,1-0.1,1.4-0.4c0.2-0.1,0.3-0.2,0.5-0.3c0.2,0.3,0.2,0.3-0.1,0.6
			c-0.5,0.5-1.1,0.7-1.8,0.7c-1.4,0-2.2-0.9-2.2-2.3c0-1.2,0.8-2.3,2-2.5c0.4-0.1,0.9-0.1,1.3,0c0.5,0.1,0.8,0.4,0.9,1
			c0.1,0.5-0.1,0.9-0.6,1.2c-0.5,0.4-1.2,0.5-1.8,0.6C134.1,31.7,133.8,31.7,133.5,31.8z M133.4,31.3c0.2,0,0.4,0,0.6-0.1
			c0.5-0.1,1-0.2,1.5-0.5c0.4-0.3,0.6-0.7,0.4-1c-0.1-0.3-0.4-0.5-0.9-0.5C134,29.2,133.2,30.2,133.4,31.3z"/>
		<path d="M150.8,26.7c0.4-0.4,0.7-0.5,1.2-0.6c0,0.2,0.1,0.4,0.1,0.6c0,1.9,0,3.7,0,5.6c0,0.1,0,0.3,0,0.4c0,0.2,0.1,0.4,0.3,0.4
			c0.1,0,0.2,0.1,0.4,0.2c-0.2,0.1-0.3,0.2-0.4,0.2c-0.4,0-0.8,0-1.2,0c-0.1,0-0.2-0.1-0.3-0.1c0.1-0.1,0.1-0.2,0.2-0.3
			c0.3-0.1,0.3-0.3,0.3-0.6c0-1.7,0-3.4,0-5.1c0-0.3-0.1-0.5-0.3-0.6C151,26.8,150.9,26.8,150.8,26.7z"/>
		<path d="M144.3,28.9c0.2,0,0.4,0,0.6,0c0.1,0,0.3,0,0.4,0c0.1,0,0.2,0.1,0.2,0.2c0,0.1-0.1,0.2-0.2,0.3c-0.1,0.1-0.2,0-0.4,0.1
			c-0.2,0-0.4,0-0.6,0c0,0.2,0,0.3,0,0.4c0,0.8,0,1.6,0,2.4c0,0.1,0,0.1,0,0.2c0,0.4,0.1,0.5,0.6,0.6c0.1,0,0.3,0,0.4,0.1
			c0.1,0,0.1,0.1,0.1,0.2c0,0.1-0.1,0.1-0.1,0.2c-0.1,0-0.2,0-0.2,0c-0.4,0-0.7,0-1.1,0c-0.3,0-0.4-0.1-0.4-0.4c0-0.6,0-1.2,0-1.8
			c0-0.6,0-1.2,0-1.8c-0.2,0-0.3,0-0.5,0c-0.2,0-0.3-0.1-0.3-0.3c0-0.2,0.1-0.2,0.2-0.2c0.5,0,0.6-0.3,0.7-0.7c0-0.2,0-0.4,0.1-0.5
			c0-0.2,0.1-0.3,0.1-0.4c0-0.1,0.1-0.1,0.2-0.1c0.1,0,0.1,0.1,0.1,0.2c0,0.4,0,0.7,0,1.1C144.3,28.5,144.3,28.6,144.3,28.9z"/>
		<path d="M114,28.3c-0.2-0.1-0.3-0.1-0.4-0.2c-0.1-0.1-0.1-0.2-0.1-0.3c-0.8-1.6-2.9-1.6-3.8-0.4c-0.2,0.3-0.4,0.7-0.6,1.1
			c-0.3,0.8-0.3,1.7,0,2.6c0.6,2.3,3.2,2.4,4.4,1.1c0.1-0.1,0.2-0.2,0.3-0.4c0.1-0.1,0.2-0.2,0.3-0.1c0.2,0.1,0.1,0.2,0.1,0.4
			c-0.1,0.2-0.3,0.4-0.4,0.6c-0.4,0.4-0.9,0.6-1.4,0.8c-0.7,0.2-1.4,0.2-2.1,0c-1.1-0.3-1.9-1.1-2.2-2.2c-0.3-0.9-0.3-1.8,0-2.7
			c0.4-1.5,1.7-2.5,3.2-2.5c0.7,0,1.4,0.1,2,0.3c0.4,0.2,0.6,0.4,0.6,0.9C114,27.6,114,27.9,114,28.3z"/>
		<path d="M118.2,30.4c0-0.5-0.3-0.8-0.7-1c-0.5-0.2-0.9-0.2-1.4,0c-0.2,0.1-0.3,0.2-0.5,0.2c-0.1,0.1-0.3,0.1-0.4-0.1
			c-0.1-0.2,0-0.3,0.1-0.4c0.2-0.1,0.4-0.2,0.6-0.3c0.6-0.2,1.2-0.2,1.8,0c0.6,0.2,1,0.6,1.2,1.2c0.1,0.3,0.1,0.7,0.1,1
			c0,0.4,0,0.9,0,1.3c0,0.3,0.1,0.5,0.3,0.7c0.1,0,0.1,0.2,0.2,0.2c-0.1,0.1-0.2,0.1-0.3,0.2c-0.2,0-0.4,0-0.6,0
			c-0.3,0-0.3,0-0.4-0.3c0-0.1,0-0.2,0-0.4c-0.1,0.1-0.2,0.2-0.3,0.2c-0.6,0.6-1.4,0.7-2.2,0.5c-1-0.3-1.4-1.6-0.6-2.4
			c0.3-0.3,0.6-0.5,1-0.6c0.4-0.1,0.9-0.1,1.3-0.2C117.8,30.4,118,30.4,118.2,30.4z M118.3,30.8c-0.7,0-1.2,0-1.8,0.3
			c-0.2,0.1-0.3,0.2-0.4,0.3c-0.3,0.3-0.4,0.7-0.2,1.1c0.1,0.4,0.5,0.6,1,0.6c0.4,0,0.7-0.1,1-0.3c0.3-0.2,0.5-0.5,0.5-0.8
			C118.3,31.6,118.3,31.2,118.3,30.8z"/>
		<path d="M122.1,33.3c-0.2,0.1-0.2,0.2-0.3,0.2c-0.5,0-1,0-1.6,0c-0.1,0-0.1-0.1-0.2-0.1c0.1-0.1,0.2-0.2,0.3-0.2
			c0.2-0.1,0.3-0.3,0.3-0.5c0-0.8,0-1.6,0-2.4c0-0.3-0.1-0.5-0.4-0.6c-0.3-0.2-0.3-0.3,0-0.6c0.5-0.4,0.7-0.3,0.9,0.3
			c0.1,0.2,0.1,0.4,0.2,0.7c0.1-0.2,0.2-0.3,0.2-0.4c0.2-0.3,0.4-0.6,0.7-0.8c0.5-0.2,0.9,0,0.9,0.5c0,0.2-0.1,0.3-0.3,0.3
			c-0.1,0-0.2-0.1-0.2-0.1c-0.3-0.1-0.5-0.1-0.7,0.2c-0.2,0.3-0.4,0.7-0.4,1.1c0,0.6,0,1.2,0,1.7c0,0.2,0.1,0.4,0.3,0.4
			C121.8,33.1,121.9,33.2,122.1,33.3z"/>
		<path d="M102.1,29.5c0.1,0,0.2-0.1,0.3-0.1c0.5,0,0.9,0,1.4,0c0.1,0,0.2,0,0.2,0c0.2,0,0.2,0.2,0.1,0.3c0,0,0,0-0.1,0
			c-0.6,0.2-0.8,0.6-1,1.1c-0.2,0.4-0.5,0.8-0.8,1.3c0.5,0.6,1.1,0.9,1.9,0.8c0,0,0.1,0,0.1,0c0.1,0,0.3-0.1,0.3,0.1
			c0,0.1-0.1,0.3-0.2,0.3c-0.5,0.3-1,0.3-1.5,0.2c-0.5-0.1-0.9-0.4-1.3-0.7c-0.1,0.1-0.3,0.2-0.4,0.3c-0.7,0.5-1.5,0.7-2.4,0.5
			c-1.4-0.4-1.9-1.9-1-3c0.2-0.3,0.6-0.5,0.9-0.8c0.1-0.1,0.2-0.2,0.4-0.2c-0.1-0.1-0.2-0.2-0.2-0.4c-0.1-0.3-0.3-0.6-0.4-0.9
			c-0.2-0.9,0.2-1.7,1-2c0.5-0.2,1-0.2,1.5,0c1,0.3,1.3,1.5,0.6,2.3c-0.3,0.3-0.6,0.5-0.9,0.8c-0.1,0.1-0.3,0.2-0.5,0.3
			c0.3,0.6,1.3,1.9,1.8,2.2c0.3-0.4,0.6-0.8,0.8-1.2c0.1-0.4,0.1-0.5-0.3-0.7C102.3,29.8,102.1,29.7,102.1,29.5z M101.3,32.4
			c-0.7-0.8-1.3-1.6-2-2.4c-0.4,0.2-0.8,0.6-1,1c-0.4,0.9,0,1.8,0.9,2.1C100,33.2,100.7,32.9,101.3,32.4z M99.8,29.2
			c0.5-0.3,0.9-0.5,1.2-0.9c0.6-0.6,0.3-1.5-0.6-1.7c-0.9-0.2-1.6,0.6-1.3,1.4C99.3,28.4,99.5,28.8,99.8,29.2z"/>
		<path d="M63.5,30c-0.1,0.4-0.1,0.9-0.3,1.3c-0.4,1.2-1.5,2.5-3.5,2.4c-1.5-0.1-2.8-1.1-3.1-2.6c-0.2-0.9-0.2-1.7,0.1-2.5
			c0.5-1.6,1.9-2.5,3.6-2.4c1.5,0.1,2.8,1.3,3,2.8C63.4,29.3,63.4,29.6,63.5,30z M62.4,29.9c0-0.8-0.1-1.5-0.4-2
			c-0.3-0.6-0.8-1-1.5-1.2c-1.3-0.3-2.4,0.3-2.9,1.7c-0.3,0.8-0.3,1.7-0.1,2.6c0.1,0.4,0.2,0.8,0.5,1.2c0.3,0.5,0.7,0.8,1.3,0.9
			c1.2,0.3,2.3-0.2,2.8-1.3C62.4,31.2,62.4,30.6,62.4,29.9z"/>
		<path d="M65.9,35.3c-0.4,0.1-1.4,0.1-1.7,0c-0.1-0.2,0-0.3,0.2-0.3c0.3-0.2,0.3-0.4,0.3-0.7c0-1.1,0-2.2,0-3.3c0-0.3,0-0.6,0-0.8
			c0-0.3-0.1-0.5-0.4-0.6c-0.1,0-0.2-0.1-0.3-0.1c0.1-0.4,0.4-0.5,0.8-0.6c0.2,0,0.4,0.1,0.4,0.3c0.1,0.2,0.1,0.3,0.2,0.5
			c0.1-0.1,0.2-0.2,0.3-0.3c1.2-1,2.9-0.5,3.3,1c0.2,0.6,0.2,1.2,0,1.8c-0.3,1.1-1.2,1.7-2.4,1.6c-0.2,0-0.5-0.1-0.7-0.2
			c-0.1-0.1-0.2-0.2-0.2-0.3c0.1-0.1,0.2-0.1,0.3-0.1c0.2,0,0.4,0.1,0.5,0.1c0.6,0.1,1.2-0.2,1.4-0.7c0.3-0.7,0.4-1.4,0.1-2.1
			c-0.3-0.9-1.2-1.2-2-0.8c-0.4,0.2-0.7,0.5-0.7,1.1c0,1.2,0,2.5,0,3.7c0,0.3,0,0.6,0.4,0.7C65.8,35,65.9,35.1,65.9,35.3z"/>
		<path d="M81.3,32.8c-0.1,0.1-0.1,0.1-0.2,0.2c-0.5,0.6-1.2,0.7-1.9,0.6c-0.6-0.1-1-0.3-1.2-0.9c-0.2-0.6-0.1-1.2,0.4-1.7
			c0.4-0.3,0.9-0.5,1.4-0.6c0.4-0.1,0.7-0.1,1.1-0.1c0.1,0,0.2,0,0.3,0c0-0.4-0.2-0.7-0.6-0.9c-0.5-0.2-0.9-0.3-1.4,0
			c-0.2,0.1-0.3,0.2-0.5,0.3c-0.1,0.1-0.3,0.1-0.4-0.1c-0.1-0.2-0.1-0.3,0.1-0.4c0.2-0.1,0.3-0.2,0.5-0.3c0.7-0.2,1.3-0.2,2,0
			c0.5,0.2,0.9,0.5,1.1,1.1c0.1,0.3,0.1,0.7,0.2,1.1c0,0.5,0,0.9,0,1.4c0,0.3,0,0.5,0.3,0.7c0.1,0,0.1,0.2,0.2,0.2
			c-0.1,0.1-0.2,0.1-0.3,0.2c-0.2,0-0.4,0-0.6,0c-0.3,0-0.3-0.1-0.4-0.3C81.3,33.1,81.3,33,81.3,32.8z M81.3,30.8
			c-0.5-0.1-1,0-1.4,0.1c-0.3,0.1-0.6,0.2-0.8,0.5c-0.3,0.3-0.4,0.7-0.2,1.1c0.1,0.4,0.5,0.6,1,0.6c0.4,0,0.8-0.1,1.2-0.5
			c0.2-0.2,0.3-0.4,0.3-0.6C81.3,31.7,81.3,31.3,81.3,30.8z"/>
		<path d="M88.3,28.8c1.5,0,2.5,1,2.5,2.4c0,1.4-1,2.4-2.4,2.4c-1.5,0-2.5-1-2.5-2.4C85.8,29.8,86.8,28.8,88.3,28.8z M90,31.2
			c0-0.4-0.1-0.8-0.3-1.1c-0.3-0.5-0.7-0.8-1.4-0.9c-0.6,0-1.1,0.3-1.4,0.8c-0.4,0.7-0.4,1.5,0,2.2c0.3,0.6,0.7,0.8,1.4,0.8
			c0.6,0,1.1-0.3,1.4-0.9C89.8,31.9,89.9,31.6,90,31.2z"/>
		<path d="M70.5,31.8c0.1,0.7,0.6,1.2,1.2,1.2c0.5,0.1,1-0.1,1.5-0.4c0.2-0.1,0.3-0.2,0.5-0.3c0.2,0.2,0.1,0.4,0,0.5
			c-0.3,0.4-0.8,0.6-1.3,0.7c-0.4,0.1-0.8,0.1-1.2,0c-0.8-0.2-1.3-0.7-1.5-1.5c-0.2-0.7-0.1-1.4,0.3-2c0.7-1.2,1.8-1.5,3-1.2
			c0.5,0.1,0.8,0.4,0.9,0.9c0.1,0.5-0.1,0.9-0.5,1.2c-0.5,0.4-1.2,0.5-1.8,0.6C71.2,31.7,70.9,31.7,70.5,31.8z M70.5,31.3
			c0.6,0,1.1-0.1,1.7-0.3c0.2-0.1,0.5-0.2,0.6-0.4c0.5-0.5,0.3-1.2-0.4-1.3c-0.2,0-0.5,0-0.7,0C70.9,29.4,70.3,30.3,70.5,31.3z"/>
		<path d="M84.3,27c0.2,0.6,0,1.2,0.1,1.9c0.2,0,0.3,0,0.5,0c0.1,0,0.3,0,0.4,0c0.1,0,0.3,0.1,0.3,0.3c0,0.2-0.1,0.2-0.3,0.3
			c-0.1,0-0.3,0-0.4,0c-0.1,0-0.2,0-0.4,0c0,0.1,0,0.2,0,0.3c0,0.8,0,1.7,0,2.5c0,0.6,0,0.7,0.7,0.7c0.1,0,0.2,0,0.3,0.1
			c0.1,0,0.2,0.1,0.2,0.2c0,0.1-0.1,0.1-0.2,0.2c0,0-0.1,0-0.1,0c-0.4,0-0.8,0-1.3,0c-0.2,0-0.3-0.1-0.3-0.3c0-0.1,0-0.3,0-0.4
			c0-0.9,0-1.9,0-2.8c0-0.2,0-0.3,0-0.5c-0.2,0-0.4,0-0.5,0c-0.1,0-0.2-0.1-0.2-0.2c0-0.2,0.1-0.3,0.2-0.3c0.6,0,0.6-0.4,0.7-0.8
			c0-0.3,0.1-0.5,0.1-0.8C83.9,27.2,84,27,84.3,27z"/>
		<path d="M76.5,33.4c-0.6,0.1-1.2,0.1-1.8,0c-0.1-0.2,0.1-0.3,0.2-0.3c0.2-0.1,0.3-0.2,0.3-0.4c0-0.8,0-1.6,0-2.5
			c0-0.3-0.1-0.5-0.4-0.6c-0.4-0.2-0.4-0.3,0-0.6c0,0,0.1-0.1,0.1-0.1c0.3-0.2,0.5-0.2,0.7,0.2c0.1,0.1,0.1,0.3,0.1,0.4
			c0,0.1,0.1,0.2,0.1,0.5c0.1-0.2,0.2-0.3,0.3-0.5c0.2-0.3,0.4-0.5,0.7-0.7c0.5-0.2,0.9,0,0.9,0.6c0,0.2-0.1,0.3-0.4,0.3
			c-0.1,0-0.2-0.1-0.2-0.1c-0.3-0.1-0.5-0.1-0.7,0.2c-0.2,0.3-0.4,0.6-0.4,1c0,0.6,0,1.2-0.1,1.8c0,0.3,0.1,0.4,0.4,0.5
			C76.3,33.1,76.5,33.2,76.5,33.4z"/>
		<path d="M91.3,33.4c0.1-0.1,0.2-0.2,0.3-0.3c0.2-0.1,0.3-0.3,0.3-0.5c0-0.8,0-1.6,0-2.4c0-0.3-0.1-0.6-0.4-0.7
			c-0.3-0.1-0.3-0.3-0.1-0.5c0.5-0.5,0.8-0.4,1,0.3c0.1,0.2,0.1,0.4,0.1,0.6c0.1-0.2,0.2-0.4,0.3-0.5c0.2-0.3,0.4-0.5,0.6-0.7
			c0.5-0.2,0.9,0.1,0.9,0.6c0,0.2-0.1,0.3-0.3,0.3c-0.1,0-0.2-0.1-0.2-0.1c-0.4-0.1-0.5-0.1-0.7,0.2c-0.2,0.3-0.3,0.6-0.4,1
			c-0.1,0.6,0,1.2-0.1,1.8c0,0.3,0.1,0.4,0.4,0.5c0.1,0,0.1,0,0.2,0.1c0,0,0.1,0.1,0.1,0.2c0,0.1-0.1,0.1-0.1,0.1
			c-0.1,0-0.1,0-0.2,0c-0.4,0-0.8,0-1.2,0C91.6,33.5,91.5,33.4,91.3,33.4z"/>
	</g>
</g>
</svg>
