<svg xmlns="http://www.w3.org/2000/svg" width="27.16" height="31.921" viewBox="0 0 27.16 31.921">
  <g id="noun_signature_667935" transform="translate(-10.7 -1.3)">
    <g id="Group_4871" data-name="Group 4871" transform="translate(10.7 1.3)">
      <g id="Group_4870" data-name="Group 4870">
        <path id="Path_15052" data-name="Path 15052" d="M33.669,25.71H29.712a1.274,1.274,0,0,0-1.274,1.274v4.761H12.343a.107.107,0,0,1-.1-.1V2.943a.107.107,0,0,1,.1-.1H33.568a.107.107,0,0,1,.1.1V4.821l.3-.4c1.073-1.408,1.174-1.542,1.14-1.643A1.438,1.438,0,0,0,33.568,1.3H12.309A1.632,1.632,0,0,0,10.7,2.909v28.7a1.632,1.632,0,0,0,1.609,1.609h17.6v-.1c.369-.436,3.521-4.057,5.2-6l.034-.034V9.85L33.669,12.03Zm-3.755,5.3V27.219h3.219Z" transform="translate(-10.7 -1.3)" fill="#262424"/>
        <path id="Path_15053" data-name="Path 15053" d="M20.5,72.047l.771-.8.771.8.4-.4-.771-.771.771-.771-.4-.4-.771.771L20.5,69.7l-.4.4.771.771-.771.771Z" transform="translate(-16.948 -46.765)" fill="#262424"/>
        <rect id="Rectangle_2570" data-name="Rectangle 2570" width="13.345" height="0.671" transform="translate(3.219 25.785)" fill="#262424"/>
        <path id="Path_15054" data-name="Path 15054" d="M49.349,26.812l12.44-17.2-.8-.536.4-.57-1.073-.771-.4.536L59.14,7.7,46.7,24.868Z" transform="translate(-34.629 -5.554)" fill="#262424"/>
        <rect id="Rectangle_2571" data-name="Rectangle 2571" width="0.503" height="3.32" transform="matrix(0.586, -0.81, 0.81, 0.586, 11.507, 20.067)" fill="#262424"/>
        <path id="Path_15055" data-name="Path 15055" d="M41.6,65.153l.8.6,2.817-2.012L42.572,61.8Z" transform="translate(-31.239 -41.514)" fill="#262424"/>
        <path id="Path_15056" data-name="Path 15056" d="M41.288,73.57c.1.067.335-.034.469-.268a.033.033,0,0,1,.034-.034L41.422,73l-.034.034C41.221,73.268,41.187,73.5,41.288,73.57Z" transform="translate(-30.994 -48.958)" fill="#262424"/>
      </g>
    </g>
  </g>
</svg>
