<svg id="Group_4874" data-name="Group 4874" xmlns="http://www.w3.org/2000/svg" width="29.696" height="37.193" viewBox="0 0 29.696 37.193">
  <path id="Path_15073" data-name="Path 15073" d="M32.1,1H9.9A2.517,2.517,0,0,0,7.4,3.5V33.311a2.48,2.48,0,0,0,2.5,2.5h2.15v.058a2.331,2.331,0,0,0,2.325,2.325H34.481A2.6,2.6,0,0,0,37.1,35.578V6a2.331,2.331,0,0,0-2.325-2.325H34.6V3.5A2.48,2.48,0,0,0,32.1,1ZM8.562,33.311V3.5A1.315,1.315,0,0,1,9.9,2.162H32.1A1.315,1.315,0,0,1,33.435,3.5V33.311A1.315,1.315,0,0,1,32.1,34.648H9.9A1.393,1.393,0,0,1,8.562,33.311ZM34.83,4.836A1.166,1.166,0,0,1,35.992,6v29.58a1.439,1.439,0,0,1-1.453,1.453H14.432a1.166,1.166,0,0,1-1.162-1.162V35.81H32.157a2.48,2.48,0,0,0,2.5-2.5V4.836h.174Z" transform="translate(-7.4 -1)"/>
  <path id="Path_15074" data-name="Path 15074" d="M30.381,10.062H40.9a.581.581,0,1,0,0-1.162H30.381a.581.581,0,1,0,0,1.162Z" transform="translate(-16.782 -4.309)"/>
  <path id="Path_15075" data-name="Path 15075" d="M30.381,16.662H40.9a.581.581,0,1,0,0-1.162H30.381a.549.549,0,0,0-.581.581A.582.582,0,0,0,30.381,16.662Z" transform="translate(-16.782 -7.073)"/>
  <path id="Path_15076" data-name="Path 15076" d="M12.281,25.462H33.318a.581.581,0,1,0,0-1.162H12.281a.549.549,0,0,0-.581.581A.625.625,0,0,0,12.281,25.462Z" transform="translate(-9.201 -10.759)"/>
  <path id="Path_15077" data-name="Path 15077" d="M12.281,32.462H33.318a.581.581,0,0,0,0-1.162H12.281a.549.549,0,0,0-.581.581A.582.582,0,0,0,12.281,32.462Z" transform="translate(-9.201 -13.691)"/>
  <path id="Path_15078" data-name="Path 15078" d="M12.281,39.562H33.318a.581.581,0,0,0,0-1.162H12.281a.549.549,0,0,0-.581.581A.582.582,0,0,0,12.281,39.562Z" transform="translate(-9.201 -16.665)"/>
  <path id="Path_15079" data-name="Path 15079" d="M12.281,46.562H33.318a.581.581,0,0,0,0-1.162H12.281a.549.549,0,0,0-.581.581A.582.582,0,0,0,12.281,46.562Z" transform="translate(-9.201 -19.597)"/>
  <path id="Path_15080" data-name="Path 15080" d="M27.158,53.081a.549.549,0,0,0-.581-.581h-14.3a.581.581,0,1,0,0,1.162H26.519A.637.637,0,0,0,27.158,53.081Z" transform="translate(-9.201 -22.571)"/>
</svg>
